
<svg id="Capa_2" data-name="Capa 2" xmlns="http://www.w3.org/2000/svg" viewBox="0 0 674.16 546.09">
  <defs>
    <style>
      .cls-1 {
        fill: none;
      }

      .cls-2 {
        fill: #d62fc2;
      }

      .cls-3 {
        fill: #141517;
      }

      .cls-4 {
        fill: #8d138e;
      }

      .cls-5 {
        fill: #0f0f0f;
      }
    </style>
  </defs>
  <g id="Capa_1-2" data-name="Capa 1">
    <g>
      <g>
        <path class="cls-1" d="M512.13,520.77c2.07-.25,4.58.06,6.76,0,3.64-.11,7.36.21,10.98,0,3.42-.19,6.7-1.09,10.15-.84,3.36-48.04,7.93-96,10.99-144.07.27-4.31,1.66-10.26,1.71-14.41.03-2.19-4.77-22.33-2.98-22.36l40.13,181.68h30.84l-14.31-204.54c-1.57-2.24-17.66,1.44-21.19,1.73-19.72,1.64-41.96,1-61.67-.85-5.36-.5-10.69-2-16.06-2.54-.9.1-.37,16.22-.44,18.17-1.98,54.03-1.5,108.12.04,162.21.2,6.88-1.18,18.48-.09,24.48.19,1.06,3.02-.05,3.43,1.32.37-.14,1.15.06,1.69,0Z"/>
        <path class="cls-1" d="M503.26,274.89c-2.39,3.14-13.33,8.52-13.11,12.16.32,5.25,9.01,14.44,14.37,15.71.43-3.85,4.07-27.92-1.26-27.87Z"/>
        <path class="cls-1" d="M486.89,229.65l19.75,45.22,2.95-57.45c-1.5-1.05-19.76,10.53-22.71,12.23Z"/>
        <path class="cls-1" d="M567.05,121.09v-.84c-1.67-.11-1.92.5-1.69-1.69,8.33,2.61,13.44-11.84,5.43-12.62-4.81-.47-8.13,3.34-8.8-2.59-.11-.98-.07-2.37,0-3.38-.56-.44-.61-1.09-.84-1.69-.35-.12-1.14.2-1.52-.17-.45-.45-.06-1.19-.17-1.52-1.73-.33-2.96.97-2.53-1.69-.28-.02-.57.02-.84,0-7.38-.64-14.98-1.75-21.96-4.23-2.61,9.68-3.16,19.2-3.39,29.14-.11,4.46-.74,8.51.2,13.33,1.69,8.64,10.06,9.91,17.55,9.91.71,5.95-2.5,13.55-.21,19.22,4.2,10.41,24.18,4.39,26.9-4.84.69-2.34-.85-10.97-.53-14.83.29-3.51,2.15-7.2,1.72-10.53-2.86-.51-9.68-7.38-9.29-10.98Z"/>
        <path class="cls-1" d="M156.14,523.29c-1.23.33-4.33,6.59-4.62,8.24-1.02,5.96-.19,9.92,6.33,11,7.86,1.31,28.54.86,37.01.24.97-.07,4.14-.41,4.5-.99,3.22-5.17-11-9.85-14.51-11.89-2.45-1.43-7.53-6.2-9.48-6.57-1.82-.35-17.82-.42-19.24-.03Z"/>
        <path class="cls-1" d="M245.65,530.79c-4.44-2-7.9-5.36-12.75-5.84-6.27-.61-12.72.61-18.94,1-1.67,2.77-3.19,13.47-.4,15.16.31.19,4.67,1.62,4.93,1.62h44.36c-.48-7.26-11.45-9.36-17.2-11.95Z"/>
        <path class="cls-1" d="M610.98,280.78l27.79-36.91c.17-1.11-9.63-10.59-11.28-12.12-1.68-1.56-12.72-11.45-13.55-11.8-1.72-.72-1.2,1.16-1.26,2.09-1.16,17.33-3.38,39.76-2.53,56.64.05.95-.55,2.32.84,2.09Z"/>
        <path class="cls-1" d="M76.11,274.03c-6.43-.47-11.9-2.28-17.33-5.72-12.93,12.3-16.98,31.91-20.69,48.82h18.17c8.55,0,16.96,9.07,19.65,16.68,5.74,16.27,4.97,38.32,8.8,55.42.13.73.56,1.08,1.24,1.31.67.23,12.58-.56,14.23-.76,5.25-.62,15.59-1.69,17.5-7.01l12.36-55.35c-3.38-2.15-7.41-5.89-9.99-9.03-2.83-3.43-1.65-4.22,1.73-1.73,12.67,9.35,31,32.2,47.72,33.41,16.66,1.2,21.99-29.48,24.65-42.09,1-4.72,6.05-32.54,4.95-34.8-1.14-2.33-12.05-5.98-13.56-4.28l-16.9,44-2.17-.58c-14.38-16.81-33.01-47.02-57.08-49.18-9.83-.88-7.61,2.61-14.1,6.82-3.97,2.58-7.75,3.7-12.42,4.06-2.02.16-4.73.15-6.76,0Z"/>
        <path class="cls-1" d="M410.34,331.52c5.21-.45,11.02-2.05,12.66-7.62,5.03-42.04,10.91-84.15,14.72-126.29-.44-4.12-4.52-5.01-7.97-5.55-36.91-.19-73.82.25-110.73.04-23.93-.14-54.33-3.39-77.71-.88-10.27,1.1-10.83,8.25-12.13,16.6-5.83,37.4-7.43,76.37-13.61,113.85.96,5.82,3.89,8.33,9.69,8.98,27,3.02,59.49-2.23,87.07-.04,5.41,1.25,10.93.85,16.44.88,1.13,0,2.25,0,3.38,0,24.33.13,54.56,2.06,78.19.03ZM363.41,224.6c-.35-3.37,6.76-1.72,6.76-2.11v-16.05h14.36v16.9c0,.26,3.89-.48,5.13.37,2.31,1.58-.01,16.96-.09,20.3-.52,22.94.47,45.97.03,68.91h-2.53l.84-87.04h-21.97l-.85,87.04-2.54-.5.86-87.8ZM284.84,287.97c-.13.6-2.58-.05-1.72,3.29.09.36,4.92,2.11-2.52,3.89v-10.98c1.88-.4,1.91,1.22,2.86,2.23.57.6,1.78-.26,1.38,1.57ZM294.96,294.31c-.68-.1-2.37.16-2.53,0-.45-.45-1.61-12.69,2.53-10.15v10.15ZM305.1,257.13v53.66c0,.55-1.81,1.62-2.53,1.27v-42.25h-28.31c-2.35,0-2.04,39.38-5.08,43.09-2.08.48-1.36-3.63-1.29-4.67.91-13.09,2.53-26.17,2.94-39.31,1.38-1.98,27.66-1.61,31.75-1.63.28-2.06-.9-12.68,1.26-12.68h28.31v-18.59h23.66v77.74l-2.55-.5.86-74.71h-20.28v75.2c0,1.13-2.53-.9-2.53-2.96v-53.66h-26.19Z"/>
        <rect class="cls-1" x="372.7" y="208.97" width="9.29" height="14.36"/>
        <path class="cls-1" d="M622.83,301.48c0-.93-10.54-14.21-11.36-14.84-1.24-.94-1.78-.82-3.21-.63-24.99,3.3-6.56,37.57,8.68,23.97,1.03-.92,5.88-7.49,5.89-8.51Z"/>
        <path class="cls-1" d="M204.08,247.88c-1.58-2.42-5.9-2.46-6.22-3.92-.37-1.68,4.74-13.07,3.31-16.41-2.18-.38-3.92,1.38-5.07,2.95-4.14,5.65-8.43,25.92-8.49,33,0,1.03-.05,1.82.87,2.51.9.67,10.48,2.91,11.45,2.18,4.53-3.42,7.35-15.39,4.15-20.31Z"/>
        <path class="cls-1" d="M440.3,204.31c-1.96,33.53-8.27,73.43-12.77,107.22-.52,3.89-.9,9.73-1.96,13.25-.68,2.24-1.92,3.1-2.59,5.01,4.75-2.85,6.89-7,7.95-12.32,1.67-36.41,11.44-75.44,12.75-111.46.17-4.63-.05-8.16-3.8-11.38.5,3.19.61,6.44.42,9.69Z"/>
        <path class="cls-1" d="M133.58,191.22c-.34,6.94-7.99,9.21-12.26,12.68-1.44,1.17-4.69,5.72-5.19,5.87-1.72.5-9.13-6.11-11.11.64-1.45,4.97.24,7.17,3.2,10.39.59.64,2.04,1.1,2.58,2.05,2.12,3.72.3,10.02-.05,14.01-.05.55.06,1.14,0,1.69-.59,5.27-1.2,14.69-5.07,18.59-.28.28-.57.56-.84.84-.15,3.18-.39,2.24,2.1,2.51,1.47.16,9.32,1.2,9.7.83l4.36-20.14c19.81,1.21,20.26-14.75,19.32-30.09-.15-2.4-1.87-16.09-2.53-17.33-.16-.3-3.62-3.09-4.22-2.53Z"/>
        <path class="cls-1" d="M102.31,453.17c13.75.04,30.15,1.1,43.55.03,1.77-.14,7.23-.97,8.07-2.28,1.4-2.16.86-10.8-1.06-11.97-1.32-.81-26.37.09-30.74-.11-16.18-.75-30.96-1.9-35.49-20.28-6.05-24.55-6.07-53.24-11.63-77.94-2.7-11.99-7.74-19.16-20.69-20.72-7.85-.95-32.98-1.19-39.89,1.04-7.37,2.38-10.85,8.7-11.82,16.05,3.67,29.19,3.83,60.58,8.54,89.46,4.97,30.47,26.64,25.19,50.21,25.84,3.62.1,7.35.81,11.37.88,9.84.18,19.74-.03,29.57,0Z"/>
        <path class="cls-3" d="M612.68,544.43c-.27-4.28,9.43-1.82,10.14-2.53,1.16-7.3-1.48-13.13-1.7-20.28-4.87,2.28-10.89.55-16.5.81-2,.09-9.52.66-10.79,1.04-1.95.58-2.26,3.29-3.47,4.14-1.31.92-3.13.48-3.7.95-.74.61.05,4.4-4.39,3.21-.3.26-.55.58-.84.84-.02,2.73-3.46,6.98-5.91,7.6-.04.51-.08,1.23,0,1.69,9.22,1.78,18.94.47,28.35.84,1.63.06,3.39-.87,2.92,1.69,1.96-.1,3.96.14,5.91,0Z"/>
        <path class="cls-5" d="M603.85,542.74c-9.41-.37-19.13.93-28.35-.84.5,2.75,2,3.09,4.63,3.4,8.65,1,18.13-.45,26.63-.86.47-2.56-1.29-1.63-2.92-1.69Z"/>
        <path class="cls-5" d="M581.42,532.6c-2.96,2.64-5.51,1.87-5.91,7.6,2.46-.62,5.89-4.88,5.91-7.6Z"/>
        <path class="cls-5" d="M567.05,121.09c-.38,3.6,6.44,10.47,9.29,10.98-.1-.79-.21-1.52-.8-2.12l-8.5-8.86Z"/>
        <path class="cls-5" d="M535.79,70.39c-4.49.33-3.38,1.87-5.07,4.22.75-.81,5.78-1.86,5.07-4.22Z"/>
        <path class="cls-5" d="M489.55,530.28c2.06-1.13,1.83,1.14,3.15-1.91-4.6,1.62-5.8,2.33-9.29,5.91,3.21.85,5.11-3.44,6.15-4.01Z"/>
        <path class="cls-5" d="M589.19,109.77c-1.31,7.04-5.03,12.25-6.93,18.92.75-.12,1.02.39,1.76-.53,3.89-4.84,7.16-20.15,7.54-26.51-3.85.03-1.9,5.63-2.37,8.12Z"/>
        <path class="cls-5" d="M586.66,528.55c.56-.47,2.38-.03,3.7-.95,1.21-.85,1.53-3.56,3.47-4.14,1.27-.38,8.8-.94,10.79-1.04,5.62-.26,11.63,1.47,16.5-.81.22,7.15,2.86,12.98,1.7,20.28-.71.71-10.41-1.75-10.14,2.53,8.33-.6,13.27,2.64,12.7-8.06-.41-7.73-3.13-13.76-.89-21.93l-15.19-199c7.79,1.24,10.5-6.54,14.76-10.17,10.69-9.12,18.76-15.32,28.31-26.61,24.02-28.4,30.71-39.39,7.13-71.31-17.61-23.83-35.04-43.8-64.72-51.04-2.53-.62-16.08-2.61-16.57-3.3-2.23-3.12-.69-14.09.84-17.81,1.15-2.78,2.25-3.14,3.21-6.51-.5.08-1.59-.15-1.69,0-.87,1.24,2.32,4.57-4.23,3.39.43,3.33-1.43,7.02-1.72,10.53-.32,3.86,1.22,12.49.53,14.83-2.72,9.22-22.7,15.25-26.9,4.84-2.29-5.68.92-13.27.21-19.22-7.49,0-15.86-1.27-17.55-9.91-.94-4.82-.31-8.87-.2-13.33.23-9.94.79-19.46,3.39-29.14,6.98,2.48,14.58,3.59,21.96,4.23.51-3.28-1.73-.58-2.39-1.03-4.01-2.71-12.89-2.25-17.68-4.81-1.07-.57-2.67-.42-3.6-1.33-1.34-1.32-2.68-12.03-1.67-13.12-.05.07-1.13-.32-1.68.6-3.78,6.33,2.27,11.53,2.42,14.98.28,6.5-3.83,20.45-4.11,28.79-.47,14.23,1.27,26.82,18.59,26.61l-.85,9.3c-13.47.99-27.88,3.93-39.74,10.54-11.81,6.58-44.74,36.62-50.54,48.33-10.63,21.48,14.8,59.61,30.7,73.82,4.53,4.05,3.01,4.33,6.33,8.84,3.63,4.94,9.19,6.72,12.68,10.98-.59,18.04-.53,36.07-.82,54.12-.78,48.2-.58,96.24.84,144.42.16,5.33-.22,10.7.01,16.03-3.73,1.32-10.37,2.92-11.88,6.4,6.1-2.15,12.03-5.51,17.74-7.6-.41-1.37-3.24-.27-3.43-1.32-1.09-6.01.28-17.61.09-24.48-1.54-54.09-2.02-108.18-.04-162.21.07-1.95-.46-18.07.44-18.17,5.36.54,10.7,2.03,16.06,2.54,19.71,1.85,41.95,2.49,61.67.85,3.53-.29,19.62-3.97,21.19-1.73l14.31,204.54h-30.84l-40.13-181.68c-1.8.03,3,20.17,2.98,22.36-.05,4.15-1.44,10.1-1.71,14.41-3.06,48.07-7.63,96.03-10.99,144.07-3.45-.24-6.73.65-10.15.84-.46,3.26,3.81.85,5.93,2.1,2.34,1.38.25,5.91,3.37,5.5.04-1.51-.36-4.35-.06-5.4.27-.95,2.39-.39,3.07-1.29.24-.33,1.07-6.76,1.21-8.1,4.9-44.76,6.15-90.32,10.15-135.19l1.67-9.72,32.07,154.1,3.44.54c.53,1.98-.52,1.43-1.08,1.93-2.45,2.18-4.92,4.35-7.37,6.52,4.45,1.2,3.65-2.59,4.39-3.21ZM504.52,302.76c-5.36-1.27-14.04-10.45-14.37-15.71-.23-3.64,10.72-9.02,13.11-12.16,5.33-.06,1.69,24.02,1.26,27.87ZM506.64,274.87l-19.75-45.22c2.95-1.69,21.2-13.27,22.71-12.23l-2.95,57.45ZM553.08,316.31c-1.8-.05-3.42-.81-5.04-.87-13.44-.5-27.12-.02-40.14-3.8l4.23-98.45c-9.69,3.29-18.86,9.73-27.8,14.91l17.6,44.57-15.48,12.3c-6.97-8.01-14-16.23-19.46-25.38-6.84-11.48-15.37-27.88-11.03-41.31,3.09-9.56,30.06-35.22,38.87-42.25,15.11-12.04,30.95-17.19,50.25-18.62.03,17.81,21.66,15.86,30.42,4.65,3.35-4.29.36-5.91,7.17-5.47,34.91,2.24,59.56,30.28,78.03,57.18,17.22,25.08,12.92,33.65-4.94,56.43-8.73,11.14-19.04,21.01-29.13,30.85l-14.73-18.03c10.68-12.5,22.02-25.25,29.56-39.79-.13-1.47-13.02-14.14-15.24-16.11-2.21-1.96-10.71-9.32-12.72-10.11-5.23-2.06-3.13,9.07-3.36,12.65-.1,1.65-.77,3.25-.87,5.04-.89,16.01-.35,32.12-1.77,48.08-2.62,2.41-6.42,2.28-9.6,4.77-6.21,4.86-5.8,12.66-2.14,19.03,1.59,2.76,4.47,4.3,5.09,7.16-15.91,1.56-31.74,3.02-47.77,2.57ZM612.68,222.05c.06-.93-.46-2.81,1.26-2.09.83.35,11.87,10.24,13.55,11.8,1.65,1.53,11.45,11.01,11.28,12.12l-27.79,36.91c-1.39.23-.79-1.14-.84-2.09-.85-16.89,1.37-39.32,2.53-56.64ZM608.26,286.01c1.43-.19,1.97-.31,3.21.63.82.62,11.36,13.9,11.36,14.84,0,1.01-4.86,7.59-5.89,8.51-15.24,13.59-33.67-20.68-8.68-23.97Z"/>
        <path class="cls-4" d="M597.9,287.55c3.18-2.49,6.98-2.35,9.6-4.77,1.42-15.97.88-32.08,1.77-48.08.1-1.8.77-3.39.87-5.04.23-3.58-1.87-14.71,3.36-12.65,2.01.79,10.51,8.15,12.72,10.11,2.22,1.97,15.11,14.64,15.24,16.11-7.54,14.54-18.88,27.29-29.56,39.79l14.73,18.03c10.09-9.83,20.4-19.71,29.13-30.85,17.86-22.79,22.16-31.36,4.94-56.43-18.47-26.89-43.12-54.94-78.03-57.18-6.8-.44-3.81,1.18-7.17,5.47-8.76,11.21-30.39,13.16-30.42-4.65-19.31,1.43-35.14,6.57-50.25,18.62-8.82,7.03-35.78,32.69-38.87,42.25-4.34,13.43,4.19,29.84,11.03,41.31,5.46,9.15,12.49,17.37,19.46,25.38l15.48-12.3-17.6-44.57c8.94-5.18,18.11-11.62,27.8-14.91l-4.23,98.45c13.02,3.78,26.7,3.3,40.14,3.8,1.62.06,3.24.82,5.04.87,16.04.45,31.86-1.01,47.77-2.57-.62-2.86-3.5-4.39-5.09-7.16-3.66-6.37-4.07-14.17,2.14-19.03Z"/>
        <path class="cls-3" d="M532.39,87.73c.93.91,2.53.76,3.6,1.33,4.79,2.55,13.67,2.09,17.68,4.81.67.45,2.91-2.25,2.39,1.03.28.02.56-.02.84,0,.12,0,1.67-.94,2.47.1.31.4-.06,1.23.07,1.59.43.08,1.01-.27,1.5.2.37.36.07,1.16.19,1.49,3.29,1.15.92.62.84,1.69-.07,1.01-.11,2.4,0,3.38,3.52,2.03,7,.3,10.37,1.02,6.53,1.39,4.9,16.53-5.3,15.88v.84l8.5,8.86c.59.6.7,1.33.8,2.12,6.55,1.18,3.36-2.14,4.23-3.39.1-.14,1.19.09,1.69,0,1.89-6.67,5.61-11.88,6.93-18.92.46-2.49-1.48-8.09,2.37-8.12.03-.56-.01-1.13,0-1.69-2.65.47-2.51-2.21,0-1.69-.01-.84.06-1.7,0-2.53-3.71.3-1.46-5.1-1.65-6.22-.11-.64-1.69-.41-1.73-1.05-.04-.53.88-1.38.7-1.91-.13-.39-5.68-4.19-3.24-6.88-.27-.28-.54-.61-.84-.84h-3.38c-.12-.53.15-1.29,0-1.69-3.33-.71-5.98-1.78-9.86-2.41l-7.88-2.66c-.27.06-.58-.06-.84,0-5.57,1.28-2.96-.02-4.37-.62-2.74-1.18-19.02-1.48-21.82-1.07-.27.04-.57-.02-.84,0,.71,2.37-4.32,3.42-5.07,4.22-1.01,1.09.33,11.8,1.67,13.12Z"/>
        <path class="cls-5" d="M558.46,71.45c1.41.61-1.2,1.9,4.37.62-.72-1.72-1.42-1.43-2.86-1.78-6.62-1.58-13.98-3-20.69-1.87-1.51.25-3.15-.32-2.65,1.96,2.8-.42,19.08-.11,21.82,1.07Z"/>
        <path class="cls-5" d="M581.41,78.83h3.38c-1.72-1.31-.53-1.08-3.38-1.69.14.4-.12,1.16,0,1.69Z"/>
        <path class="cls-5" d="M581.42,77.15c-.12-.34.27-1.09-.11-1.55-.88-1.06-13.57-4.36-15.61-4.41-1.38-.03-1.82.85-2.02.89l7.88,2.66c3.88.63,6.53,1.7,9.86,2.41Z"/>
        <path class="cls-5" d="M588.88,86.56c.18.52-.74,1.37-.7,1.91.04.64,1.62.41,1.73,1.05.19,1.12-2.06,6.52,1.65,6.22-.48-6.96-.77-10.77-5.91-16.05-2.44,2.69,3.11,6.49,3.24,6.88Z"/>
        <path class="cls-5" d="M591.56,99.96c.01-.56,0-1.13,0-1.69-2.51-.52-2.65,2.16,0,1.69Z"/>
        <path class="cls-5" d="M570.79,105.93c8.02.79,2.9,15.23-5.43,12.62-.23,2.19.03,1.58,1.69,1.69,10.2.65,11.83-14.49,5.3-15.88-3.37-.72-6.86,1.01-10.37-1.02.67,5.93,4,2.12,8.8,2.59Z"/>
        <path class="cls-5" d="M559.45,96.58c-.13-.36.24-1.19-.07-1.59-.8-1.04-2.34-.1-2.47-.1-.43,2.66.81,1.36,2.53,1.69Z"/>
        <path class="cls-5" d="M561.14,98.27c.24.6.29,1.25.84,1.69.08-1.07,2.45-.54-.84-1.69Z"/>
        <path class="cls-5" d="M559.62,98.11c.37.37,1.17.04,1.52.17-.13-.32.17-1.13-.19-1.49-.48-.47-1.06-.12-1.5-.2.12.34-.28,1.08.17,1.52Z"/>
        <path class="cls-3" d="M535.8,522.87c-2.12-1.25-6.38,1.16-5.93-2.1-3.63.21-7.35-.11-10.98,0l-2.99,2.61-3.77-2.61c-.54.06-1.32-.14-1.69,0-5.71,2.09-11.64,5.45-17.74,7.6-1.32,3.05-1.08.77-3.15,1.91-1.04.57-2.94,4.86-6.15,4.01-.28.29-.6.52-.84.84-2.73,10.46,4.67,6.37,12.29,6.72,2,.09,3.86.89,5.85.91,11.26.16,22.41-1.13,33.67-1.09,4.25.13,1.33-5.74,4.81-5.71.15-2.51-.07-5.09,0-7.6-3.11.41-1.03-4.13-3.37-5.5Z"/>
        <path class="cls-5" d="M534.36,541.69c-11.26-.04-22.41,1.24-33.67,1.09-1.99-.03-3.85-.82-5.85-.91-7.62-.36-15.02,3.74-12.29-6.72-5.08,6.64-3.21,8.65,4.62,9.33,10.39.9,36.53,1.28,46.42-.11,6.06-.85,5.29-3.42,5.57-8.37-3.48-.03-.57,5.84-4.81,5.71Z"/>
        <path class="cls-5" d="M512.13,520.77l3.77,2.61,2.99-2.61c-2.18.06-4.69-.25-6.76,0Z"/>
        <path class="cls-5" d="M97.5,467.82c-.47.63.05,1.78-.83,2.27-3.72,2.07-9.24.87-12.96,2.51l.84,66.75h-31.69c-.15,0-1.96,1.78-2.04,2.23-.26.87,1.82,2.84,2.04,2.84h64.22c3.22,0,2.29-5.07.84-5.07h-30.84v-65.91c0-.42,5.43-.08,8.19-1.52,3.1-1.63,2.42-2.81,3.64-4.39-.04.06-1.07-.2-1.42.29ZM84.56,542.74h-29.57v-1.69h29.57v1.69ZM116.67,541.05v1.69h-30.42v-1.69h30.42Z"/>
        <path class="cls-5" d="M51.61,255.44c.07,1.36.28,5.99.96,6.67.36.37,1.23-.04,1.58.09-.34-2.15.8-7.15-2.53-6.76Z"/>
        <path class="cls-5" d="M265.02,539.32c-2.13-6.65-19.34-10.5-24.97-14.33l6.8-2.17c-.03-12.11,1.92-24.18,2.52-36.23.83-16.68,1.75-36.75.84-53.3-2.37-43.13-21.98-45.33-59.61-48.55-23.18-1.98-46.48-2.26-69.71-3.39,1.6-5.47,3.28-11.18,3.38-16.9,50.12-.01,100.29.03,150.41,0,.12-1.07.28-3.99,1.41-4.26,5.49-1.32,18.5.57,25.25.07,4.74-.35,4.83-1.25,6.08-5.76,1.04-3.77.45-10.17,1.38-13.99,2.65-10.81,6.08-6.6,14.38-6.57.69,0,6.47-.29,5.59-2.45-5.51-.03-11.04.37-16.44-.88-27.58-2.2-60.07,3.06-87.07.04-5.79-.65-8.73-3.16-9.69-8.98,6.18-37.48,7.78-76.45,13.61-113.85,1.3-8.35,1.86-15.5,12.13-16.6,23.38-2.5,53.78.74,77.71.88,36.91.21,73.82-.23,110.73-.04,3.45.54,7.53,1.42,7.97,5.55-3.8,42.14-9.68,84.25-14.72,126.29-1.64,5.57-7.45,7.17-12.66,7.62-23.63,2.03-53.86.1-78.19-.03-.71,7.78,2.11,16.95,4.45,24.51.73,2.36-.46,3.66,4.39,4.26,8.19,1.02,18.46-.84,26.9-.05l2.29,4.24c30.41.03,60.85-.02,91.26,0v178.72c0,.55,1.81,1.62,2.53,1.27v-182.52h-92.95c-.16,0,.34-2.54-.11-3.25-1.49-2.32-27.57.02-32.05-1.35l-5.87-23.29h86.61c5.5,0,13.97-9.93,13.84-15.73,2.08-36.45,11.36-75.29,12.77-111.44.44-11.45-4.09-16.85-15.59-18.19l-191.79.08c-4.5,1.3-7.95,3.47-9.92,7.83-6.86,42.08-11.06,85.13-15.7,127.54.86,4.67,5.82,8.37,10.43,8.99,15.8,2.15,38.9-.33,55.73.04,2,.04,3.85.86,5.85.91,7.74.22,15.54-.24,23.27-.03l-3.38,23.66c-1,1.06-24.82-.83-29.13.02-3.65.71-2.7,4.2-2.98,4.2H125.12l8.03-31.25c10.64,9.43,35.28,31.43,48.92,17.63,11.06-11.19,18.76-56.79,20.03-73,.14-1.76-.93-3.91-.73-4.97.17-.89,2.53-2.67,3.35-4.16,2.79-5.05,4.59-11.81,2.84-17.53-.9-2.94-6.01-5.45-6.14-6.25-.16-.95,1.99-7.31,2.19-9.44.55-5.85,1.39-10.79-5.72-7.41-10.41,4.96-10.27,29.68-13.18,39.21-.66,2.15-2.51,4.48-3.37,6.77-4.66,12.42-9.2,24.95-14.4,37.15-13.67-16.72-27.15-36.96-47.64-45.73-.51-.8,3.1-17.76,3.68-18.51.74-.95,6.22-1.26,8.23-1.91,5.33-1.71,9.04-6.13,10.55-11.42,3.64-12.7-1.37-26.41.25-39.04-1.2.61-2.92,1.18-4.22,1.69.66,1.24,2.38,14.94,2.53,17.33.95,15.34.49,31.31-19.32,30.09l-4.36,20.14c-.38.37-8.24-.67-9.7-.83-2.49-.28-2.25.67-2.1-2.51-.1.11-1.24-.33-1.76.52-.76,1.23-.41,3.75-.95,4.38-.36.42-2.06.28-2.84.94-1.16.98-.88,2.72-1.41,3.25-.41.41-9.54,4.89-10.09,5.08-.91.32-4.8-2.51-4.92,1.89,4.67-.36,8.45-1.48,12.42-4.06,6.49-4.21,4.27-7.7,14.1-6.82,24.07,2.16,42.7,32.37,57.08,49.18l2.17.58,16.9-44c1.51-1.7,12.42,1.95,13.56,4.28,1.1,2.26-3.95,30.08-4.95,34.8-2.66,12.6-7.99,43.29-24.65,42.09-16.72-1.21-35.04-24.06-47.72-33.41-3.38-2.49-4.56-1.7-1.73,1.73,2.59,3.14,6.61,6.88,9.99,9.03l-12.36,55.35c-1.91,5.31-12.24,6.39-17.5,7.01-1.65.19-13.56.99-14.23.76-.68-.23-1.11-.58-1.24-1.31-3.83-17.1-3.06-39.15-8.8-55.42-2.69-7.61-11.1-16.68-19.65-16.68h-18.17c3.71-16.9,7.76-36.52,20.69-48.82,5.43,3.44,10.9,5.25,17.33,5.72-.05-4.4-4.23-1.56-4.93-1.89-1.48-.7,1.76-1.18-3.13-.75-.68.06-9.28-5.47-10.99-6.64-1.3-.89-.02-1.52-2.91-2.54.27,1.72,1.65,4.17,1.6,4.53-.08.51-5.21,6.59-6.18,8.22-7.75,13.05-10.82,27.65-14.97,42.07-22.54-1.29-35.67,2.59-34.53,27.56,1.35,29.51,6.84,61.06,10.09,90.47,7.09,18.59,20.8,20.01,38.46,20.69,7.17.28,14.42-.27,21.58-.03.11-.17,3.11-.31,2.53-2.53-4.02-.07-7.76-.78-11.37-.88-23.57-.65-45.24,4.63-50.21-25.84-4.71-28.88-4.87-60.27-8.54-89.46.97-7.36,4.45-13.67,11.82-16.05,6.91-2.23,32.04-1.98,39.89-1.04,12.95,1.56,17.99,8.73,20.69,20.72,5.56,24.71,5.58,53.4,11.63,77.94,4.53,18.38,19.31,19.54,35.49,20.28,4.37.2,29.42-.7,30.74.11,1.91,1.18,2.46,9.81,1.06,11.97-.84,1.31-6.3,2.13-8.07,2.28-13.4,1.07-29.8,0-43.55-.03,1,2.27-1.6,2.57-1.7,3.12-.65,3.46.88,6.66-1.68,11.24.07-.09,1.11.43,1.95-1.04,1.45-2.54,2.12-7.77,2.28-10.79,14.64-.96,30.79,1.25,45.24.03,1.47-.12,3.27-.31,4.61-.88,7.81-3.34,2.73-15.44,3.38-16.05l39.7-2.54c-.11,2.1.18,4.26.04,6.37-.84,12.42-3.44,27.82-5.22,40.41-1.74,12.29-3.81,24.56-5.88,36.79l-34.56,1.78c.06.07-.84,1.12-.39,1.73.58.77,2.29.58,2.07,1.23-.14.41-1.45,1.36-1.85,2.38-2.45,6.22-3.46,15.66,4.54,17.76,5.62,1.47,35.05,1.37,41.7.59,5.61-.66,8.12-5.87,4.24-10.19-2.69-3-19.81-8.07-19.9-12.21,2.23-1.22,6.21,1.04,6.77-2.54,3.09-18,6-36.08,8.33-54.2,1.26-9.78,2.82-19.59,2.65-29.45,4.52-2.14,4.78,10.02,5.07,13.52,1.81,22.12-.14,45.79,1.71,67.58.1,1.15.93,6.85,1.2,7.25.83,1.25,3.64.58,3.86.79.65.61-1.69,7.91-1.68,9.72,0,6.15,3.92,9.1,9.7,9.72,8.93.96,34.48,1.18,43.14.04,3.66-.48,4.48-2.6,3.39-6ZM443.67,206c-1.3,36.03-11.08,75.05-12.75,111.46-1.07,5.32-3.2,9.46-7.95,12.32.67-1.91,1.91-2.76,2.59-5.01,1.06-3.52,1.44-9.36,1.96-13.25,4.5-33.79,10.81-73.68,12.77-107.22.19-3.25.08-6.5-.42-9.69,3.75,3.23,3.97,6.75,3.8,11.38ZM188.48,266.02c-.93-.69-.88-1.48-.87-2.51.06-7.08,4.35-27.35,8.49-33,1.15-1.57,2.89-3.33,5.07-2.95,1.43,3.34-3.68,14.73-3.31,16.41.32,1.46,4.65,1.5,6.22,3.92,3.2,4.92.38,16.89-4.15,20.31-.98.74-10.55-1.5-11.45-2.18ZM184.86,529.9c3.51,2.04,17.73,6.72,14.51,11.89-.36.58-3.53.92-4.5.99-8.48.62-29.15,1.07-37.01-.24-6.53-1.09-7.35-5.05-6.33-11,.28-1.65,3.39-7.91,4.62-8.24,1.42-.38,17.42-.32,19.24.03,1.95.37,7.03,5.15,9.48,6.57ZM208.77,523.31l-2.54-74.78-2.61-14.71-38.33,2.49c-13.51-.53-27.14.56-40.63,0-5.57-.23-16.62-.61-21.53-2.13-16.51-5.13-14.87-27.41-17.73-40.99,7.63-.81,26.51-.75,32.46-5.14,1.5-1.11,1.31-3.18,2.14-3.77,1.83-1.3,5.69.42,8.03.49,16.49.5,32.59,1.36,49.05,2.49,18.81,1.3,48.94-.72,61.69,15.21,13.52,16.9,8.21,58.89,7.14,79.83-.62,12.07-.21,24.12-1.84,36.18-.25.76-.5,1.77-1.06,2.32-1.99,1.98-29.27,1.91-34.25,2.52ZM218.49,542.74c-.26,0-4.62-1.43-4.93-1.62-2.79-1.69-1.27-12.4.4-15.16,6.22-.39,12.67-1.61,18.94-1,4.85.47,8.32,3.84,12.75,5.84,5.75,2.59,16.72,4.69,17.2,11.95h-44.36Z"/>
        <path class="cls-5" d="M139.92,176c5.46,5.05,2.87,10.08,2.1,16.07,1.79-.91,2.61-.86,3.18-4,1.91-10.59-3.55-14.37-12.47-17.13.55,2.78,5.14,3.16,7.19,5.06Z"/>
        <path class="cls-2" d="M190.91,483.05c1.78-12.59,4.38-27.99,5.22-40.41.14-2.1-.15-4.27-.04-6.37l-39.7,2.54c-.65.61,4.43,12.71-3.38,16.05-1.01,21.58-2.87,43.17-5.11,64.66.17,2.26,2.38,1.84,2.58,2.09l34.56-1.78c2.07-12.22,4.14-24.5,5.88-36.79Z"/>
        <path class="cls-2" d="M244.08,518.47c1.63-12.06,1.23-24.11,1.84-36.18,1.07-20.94,6.38-62.93-7.14-79.83-12.74-15.93-42.87-13.91-61.69-15.21-16.46-1.13-32.56-1.99-49.05-2.49-2.34-.07-6.2-1.79-8.03-.49-.83.59-.64,2.66-2.14,3.77-5.95,4.4-24.83,4.33-32.46,5.14,2.86,13.58,1.21,35.86,17.73,40.99,4.91,1.53,15.96,1.9,21.53,2.13,13.5.56,27.13-.52,40.63,0l38.33-2.49,2.61,14.71,2.54,74.78c4.98-.6,32.26-.54,34.25-2.52.56-.55.81-1.56,1.06-2.32Z"/>
        <path class="cls-3" d="M57.06,264.74c1.72,1.17,10.32,6.7,10.99,6.64,4.9-.42,1.66.06,3.13.75.69.33,4.87-2.51,4.93,1.89,2.03.15,4.74.16,6.76,0,.12-4.4,4.01-1.57,4.92-1.89.55-.19,9.68-4.67,10.09-5.08.53-.53.26-2.27,1.41-3.25.78-.66,2.48-.52,2.84-.94.55-.63.2-3.15.95-4.38.52-.84,1.66-.41,1.76-.52.28-.29.56-.56.84-.84-.11-4.16,2.13-8.32,2.89-12.26.27-1.41-1.17-6.69,2.18-6.33.06-.55-.05-1.14,0-1.69-2.56.47-1.63-1.29-1.69-2.92-.17-4.42.38-8.79-.85-13.14-2.96-3.21-4.65-5.41-3.2-10.39,1.97-6.75,9.38-.14,11.11-.64.5-.15,3.75-4.69,5.19-5.87,4.26-3.47,11.91-5.73,12.26-12.68.6-.56,4.06,2.23,4.22,2.53,1.31-.51,3.02-1.08,4.22-1.69.77-5.99,3.36-11.02-2.1-16.07-2.05-1.9-6.64-2.28-7.19-5.06-.45-.14-1.2.13-1.69,0,.23,3.59-1.57.72-3.18.2-1.11-.36-2.98.07-3.51-.31-.37-.27.06-1.42-.07-1.58-1.58-1.93-7.29-3.01-9.82-3.28-37.62-3.93-41.71,24.19-48.48,53.13-2.62,11.21-9.89,19.43-12.23,31.26-.28,1.42-.05,3.01-2.13,2.54-.03.83-.04,1.7,0,2.53,3.34-.39,2.19,4.61,2.53,6.76,2.9,1.03,1.62,1.66,2.91,2.54Z"/>
        <path class="cls-5" d="M53.74,250.37c2.34-11.84,9.61-20.05,12.23-31.26-1.44.54-1.77,1.89-2.41,3.08-4.73,8.8-11.56,20.86-11.95,30.72,2.09.48,1.85-1.11,2.13-2.54Z"/>
        <path class="cls-5" d="M124.35,170.83c.53.37,2.39-.06,3.51.31,1.61.52,3.41,3.4,3.18-.2-1.77-.47-4-2.59-6.76-1.69.13.16-.3,1.31.07,1.58Z"/>
        <path class="cls-5" d="M110.8,222.84c-.54-.95-1.99-1.41-2.58-2.05,1.22,4.35.68,8.71.85,13.14.06,1.63-.87,3.39,1.69,2.92.34-3.99,2.17-10.29.05-14.01Z"/>
        <path class="cls-5" d="M108.58,244.87c-.77,3.94-3,8.1-2.89,12.26,3.87-3.9,4.48-13.32,5.07-18.59-3.34-.36-1.9,4.92-2.18,6.33Z"/>
        <path class="cls-3" d="M100.6,456.29c.1-.55,2.71-.86,1.7-3.12-9.84-.03-19.74.18-29.57,0,.58,2.22-2.42,2.37-2.53,2.53-.19.28-.1,5.75,0,6.76,3.32-.03,2.13,2.38,2.53,4.22,1.48.8,2.98.08,2.53,3.38,1.54,1.01,1.5,1.07,3.38,1.69,1.45-1.61,4.09-1.41,3.38.84.56,0,1.13,0,1.69,0,3.72-1.64,9.23-.44,12.96-2.51.88-.49.36-1.64.83-2.27.36-.49,1.39-.23,1.42-.29,2.56-4.58,1.03-7.78,1.68-11.24Z"/>
        <path class="cls-5" d="M72.73,466.69c.14.65-.33,1.64.16,2.38.29.44,1.76.59,2.38,1,.44-3.3-1.06-2.58-2.53-3.38Z"/>
        <path class="cls-5" d="M70.2,462.46c.11,1.11.2,2.83.76,3.72.6.95,1.41.3,1.77.5-.4-1.84.79-4.25-2.53-4.22Z"/>
        <path class="cls-5" d="M78.65,471.76c1.36.45,1.3.87,3.38.84.71-2.26-1.93-2.46-3.38-.84Z"/>
        <rect class="cls-3" x="86.25" y="541.05" width="30.42" height="1.69"/>
        <rect class="cls-3" x="54.99" y="541.05" width="29.57" height="1.69"/>
        <path class="cls-4" d="M340.98,360.26c-4.84-.61-3.66-1.9-4.39-4.26-2.34-7.56-5.16-16.73-4.45-24.51-1.13,0-2.25,0-3.38,0,.88,2.16-4.9,2.45-5.59,2.45-8.3-.04-11.73-4.25-14.38,6.57-.94,3.82-.34,10.22-1.38,13.99-1.25,4.51-1.33,5.41-6.08,5.76-6.75.5-19.76-1.39-25.25-.07-1.13.27-1.29,3.19-1.41,4.26,31.81-.02,63.67-.03,95.48,0l-2.29-4.24c-8.44-.78-18.71,1.08-26.9.05Z"/>
        <path class="cls-3" d="M333.83,313.74v-75.2h20.28l-.86,74.71,2.55.5v-77.74h-23.66v18.59h-28.31c-2.17,0-.99,10.62-1.26,12.68-4.08.02-30.37-.35-31.75,1.63-.41,13.14-2.03,26.22-2.94,39.31-.07,1.04-.79,5.15,1.29,4.67,3.04-3.7,2.73-43.09,5.08-43.09h28.31v42.25c.72.35,2.53-.72,2.53-1.27v-53.66h26.19v53.66c0,2.06,2.53,4.08,2.53,2.96Z"/>
        <path class="cls-5" d="M283.46,286.4c-.95-1-.97-2.62-2.86-2.23v10.98c7.44-1.78,2.61-3.54,2.52-3.89-.87-3.33,1.58-2.69,1.72-3.29.4-1.82-.81-.97-1.38-1.57Z"/>
        <path class="cls-3" d="M292.43,294.32c.16.16,1.85-.1,2.53,0v-10.15c-4.14-2.54-2.98,9.7-2.53,10.15Z"/>
        <path class="cls-3" d="M365.94,225.87h21.97l-.84,87.04h2.53c.43-22.94-.56-45.97-.03-68.91.08-3.34,2.41-18.72.09-20.3-1.24-.85-5.13-.11-5.13-.37v-16.9h-14.36v16.05c0,.39-7.11-1.26-6.76,2.11l-.86,87.8,2.54.5.85-87.04ZM372.7,208.97h9.29v14.36h-9.29v-14.36Z"/>
      </g>
      <g>
        <path class="cls-1" d="M300.16,64.07c0,13.86,11.24,25.1,25.1,25.1s25.11-11.24,25.11-25.1-11.25-25.1-25.11-25.1-25.1,11.24-25.1,25.1Z"/>
        <path class="cls-4" d="M275.28,23.26c-28.69,36.08-5.38,78.87,15.56,111.85,9.44,14.88,20.8,28.44,30.57,43.08,1.49,2.23,4.64,2.44,6.51.52.01-.01.03-.03.04-.04,19.03-19.51,59.63-83.37,61.81-109.88,5.2-63.57-77.02-92.63-114.48-45.53ZM350.3,62.04c1.21,15.47-11.62,28.28-27.09,27.05-12.17-.97-22.02-10.83-22.97-23-1.21-15.47,11.61-28.28,27.08-27.04,12.17.97,22.02,10.83,22.98,22.99Z"/>
      </g>
    </g>
  </g>
</svg>