<svg id="Capa_2" data-name="Capa 2" xmlns="http://www.w3.org/2000/svg" viewBox="0 0 96.74 112.21">
  <defs>
    <style>
      .cls-1 {
        fill: #fff;
      }
    </style>
  </defs>
  <g id="Capa_1-2" data-name="Capa 1">
    <g>
      <path class="cls-1" d="M19.7,111.64c-.57.54-.83.54-1.4,0M77.46,111.48l-.15-26.3c.36-.18.77-.33,1.06.05l.34,26.26M18.38,111.48c.49-7.35-.09-14.79.17-22.16.01-.42.17-.81.19-1.23.05-.84-.42-4.16.97-2.94l-.09,26.33M1.12,111.75c-.17.11-.06.45-.44.46-.91.01-.65-1.2-.63-1.88.32-7.62,2-17.79,3.46-25.36,2.75-14.24,5.48-18.61,19.35-23.53,3.81-1.35,8.6-2.08,12.11-3.55.77-.32,1.68-.71,1.97-1.59.69-2.07.23-4.99.61-7.15-3.03-3.49-5.09-7.75-5.66-12.38-2.33.28-4.22-2.44-5.01-4.33-1.07-2.56-1.24-6.16,1.65-7.53-1.25-5.45-1.74-12.1,1.51-16.95C35.56-.25,49.3-1.59,57.93,1.58c9.83,3.62,12.05,13.73,10.27,23.17l.09.26c4.33,2.63,1.92,11.94-3.28,11.75-.65,4.57-2.53,8.98-5.66,12.39.17,2,.07,4.22.32,6.19.22,1.77.84,2.01,2.39,2.59,9.89,3.65,22.72,4.4,27.94,15.12,3.76,7.71,6.35,27.89,6.67,36.74.03.84.35,2.53-.87,2.2-.66-5.39-1.06-10.84-1.82-16.23-1.3-9.2-2.74-24.02-11.31-29.25-6.2-3.79-14.27-5.29-21.14-7.51-.01.78-.18,1.49-.44,2.23-1.33,3.73-5.42,6.13-9.22,6.8-6.62,1.16-15.43-1.31-16.68-8.85-5.2,1.34-10.42,2.66-15.39,4.72-9.36,3.9-12.02,7.52-14.33,17.34s-3.1,20.2-4.36,30.25M36.71,15.24c-.63,1.98-1.38,3.93-2.01,5.91-.33,1.06-1.07,4.79-1.55,5.39-.96,1.21-2.01-.82-3.41-.71-2.07.16-2.49,2.79-2.27,4.42.19,1.39,1.98,5.03,3.46,5.25.65.1,1.31-.24,1.77.37.28.37.94,3.88,1.26,4.79,5.04,14.7,22.79,16.12,28.56,1.35.8-2.05,1.18-4.19,1.68-6.32.77-.33,1.42-.06,2.27-.4,2.03-.81,3.18-4.4,2.94-6.4-.19-1.62-1.4-3.65-3.29-3.02-.73.24-1.42,1.58-2.09.75-.37-.46-1.01-4.15-1.29-5.11-.18-.6-1.4-4.22-1.76-4.3-6.31,2.66-14.23,2.2-20.53-.28-.53-.21-3.58-1.82-3.74-1.69ZM58.24,50.1c-4.56,3.98-11.75,4.47-17.02,1.63-.3-.16-2.45-1.74-2.55-1.63-.3,1.93.1,6.32-1.25,7.74-.32.33-.74.45-1.08.74,1.08,10.45,19.91,11.28,23.53,2.5.24-.59.74-2.06.41-2.61-.3-.5-1.41-.77-1.65-1.91-.41-1.97-.14-4.42-.4-6.45Z"/>
      <path class="cls-1" d="M48.77,26.67c.25.26.24.93.22,1.28-.1,1.68-2.04,7.28-1.26,8.38.82.8,2.03.18,3.03.62l-.21.84c-.97.39-3.5.16-4.03-.78-.68-1.2.68-6.26.99-7.86.11-.59.18-3.6,1.26-2.48Z"/>
      <path class="cls-1" d="M53.75,41.43c.83.86-1.53,1.77-2.13,1.96-2.02.66-4.24.7-6.24-.09-.84-.33-2.63-1.28-1.3-2.09,2.43,1.71,4.85,1.82,7.62.85.53-.19,1.63-1.05,2.04-.63Z"/>
      <path class="cls-1" d="M54.99,25.23c1.42-.22,1.7,2.6.86,3.36-2.26,1.18-2.53-3.11-.86-3.36Z"/>
      <path class="cls-1" d="M41.11,25.22c1.56-.3,1.7,2.93.58,3.44-1.99.9-2.21-3.12-.58-3.44Z"/>
    </g>
  </g>
</svg>