<?xml version="1.0" encoding="UTF-8"?>
<svg id="Capa_2" data-name="Capa 2" xmlns="http://www.w3.org/2000/svg" viewBox="0 0 368.98 47.76">
  <defs>
    <style>
      .cls-1 {
        fill: #da42bd;
      }

      .cls-2 {
        fill: #610d75;
      }
    </style>
  </defs>
  <g id="Capa_1-2" data-name="Capa 1">
    <g>
      <g>
        <path class="cls-2" d="M11.51,46.5c-2.16,0-4.12-.5-5.87-1.49-1.75-.99-3.13-2.34-4.13-4.04-1.01-1.7-1.51-3.59-1.51-5.67s.5-4.05,1.51-5.76c1.01-1.7,2.38-3.04,4.13-4.02,1.75-.98,3.72-1.47,5.91-1.47,1.69,0,3.24.3,4.67.91,1.42.61,2.67,1.5,3.73,2.69l-3.82,3.82c-.53-.65-1.19-1.14-1.98-1.47-.79-.33-1.65-.49-2.6-.49-1.07,0-2.02.24-2.87.73-.84.49-1.5,1.16-1.98,2.02-.47.86-.71,1.85-.71,2.98s.24,2.12.71,2.98c.47.86,1.13,1.54,1.98,2.04.84.5,1.8.76,2.87.76.98,0,1.85-.17,2.62-.51.77-.34,1.45-.84,2.04-1.49l3.73,3.78c-1.04,1.19-2.27,2.1-3.71,2.73-1.44.64-3.02.96-4.73.96Z"/>
        <path class="cls-2" d="M33.29,46.5c-2.16,0-4.11-.5-5.84-1.49-1.73-.99-3.1-2.34-4.11-4.04-1.01-1.7-1.51-3.62-1.51-5.76s.5-3.99,1.51-5.67c1.01-1.67,2.38-3.01,4.11-4,1.73-.99,3.68-1.49,5.84-1.49s4.16.49,5.89,1.47,3.11,2.31,4.13,4,1.53,3.59,1.53,5.69-.5,4.02-1.51,5.73c-1.01,1.72-2.39,3.07-4.13,4.07-1.75.99-3.72,1.49-5.91,1.49ZM33.29,41.04c1.1,0,2.07-.25,2.91-.76.84-.5,1.5-1.18,1.96-2.04.46-.86.69-1.85.69-2.98s-.24-2.12-.73-2.98c-.49-.86-1.14-1.53-1.96-2.02-.82-.49-1.77-.73-2.87-.73s-2.02.24-2.84.73c-.83.49-1.47,1.16-1.93,2.02-.46.86-.69,1.85-.69,2.98s.23,2.12.69,2.98c.46.86,1.1,1.54,1.93,2.04.83.5,1.78.76,2.84.76Z"/>
        <path class="cls-2" d="M48.53,46.01v-21.47h5.82v21.47h-5.82ZM62.94,46.01v-12.31c0-1.27-.4-2.31-1.2-3.11-.8-.8-1.82-1.2-3.07-1.2-.83,0-1.57.18-2.22.53-.65.36-1.16.87-1.53,1.53-.37.67-.56,1.42-.56,2.24l-2.27-1.2c0-1.66.36-3.12,1.09-4.38.73-1.26,1.73-2.24,3.02-2.96,1.29-.71,2.75-1.07,4.38-1.07s3.01.39,4.24,1.18c1.23.79,2.2,1.81,2.91,3.07.71,1.26,1.07,2.6,1.07,4.02v13.65h-5.87Z"/>
        <path class="cls-2" d="M71.65,29.66v-5.11h15.87v5.11h-15.87ZM76.67,46.01V15.61h5.82v30.4h-5.82Z"/>
        <path class="cls-2" d="M90.8,46.01v-21.47h5.82v21.47h-5.82ZM96.63,34.19l-2.27-1.56c.27-2.64,1.04-4.72,2.31-6.25,1.27-1.53,3.11-2.29,5.51-2.29,1.07,0,2.01.17,2.82.51.81.34,1.56.9,2.24,1.67l-3.64,4.22c-.33-.38-.72-.66-1.18-.82-.46-.16-.99-.24-1.58-.24-1.24,0-2.26.39-3.04,1.16-.79.77-1.18,1.97-1.18,3.6Z"/>
        <path class="cls-2" d="M119.03,46.46c-1.96,0-3.71-.49-5.27-1.47-1.56-.98-2.78-2.31-3.67-4-.89-1.69-1.33-3.58-1.33-5.69s.44-4.04,1.33-5.73c.89-1.69,2.11-3.02,3.67-4,1.56-.98,3.33-1.47,5.31-1.47,1.51,0,2.87.31,4.09.93,1.21.62,2.19,1.48,2.93,2.58.74,1.1,1.14,2.36,1.2,3.78v7.78c-.06,1.39-.45,2.64-1.18,3.76-.73,1.11-1.7,1.98-2.93,2.6-1.23.62-2.62.93-4.16.93ZM120.14,41.08c1.63,0,2.95-.55,3.96-1.64,1.01-1.1,1.51-2.47,1.51-4.13,0-1.13-.24-2.13-.71-3.02-.47-.89-1.11-1.58-1.91-2.07-.8-.49-1.75-.73-2.84-.73s-2.01.25-2.82.76c-.82.5-1.45,1.19-1.91,2.04-.46.86-.69,1.85-.69,2.98s.23,2.16.69,3.02c.46.86,1.1,1.54,1.93,2.04.83.5,1.76.76,2.8.76ZM125.25,46.01v-5.78l.98-5.24-.98-5.2v-5.25h5.87v21.47h-5.87Z"/>
        <path class="cls-2" d="M146.27,46.5c-2.16,0-4.12-.5-5.87-1.49-1.75-.99-3.13-2.34-4.13-4.04-1.01-1.7-1.51-3.59-1.51-5.67s.5-4.05,1.51-5.76c1.01-1.7,2.38-3.04,4.13-4.02,1.75-.98,3.72-1.47,5.91-1.47,1.69,0,3.24.3,4.67.91,1.42.61,2.67,1.5,3.73,2.69l-3.82,3.82c-.53-.65-1.19-1.14-1.98-1.47-.79-.33-1.65-.49-2.6-.49-1.07,0-2.02.24-2.87.73-.84.49-1.5,1.16-1.98,2.02-.47.86-.71,1.85-.71,2.98s.24,2.12.71,2.98c.47.86,1.13,1.54,1.98,2.04.84.5,1.8.76,2.87.76.98,0,1.85-.17,2.62-.51.77-.34,1.45-.84,2.04-1.49l3.73,3.78c-1.04,1.19-2.27,2.1-3.71,2.73-1.44.64-3.02.96-4.73.96Z"/>
        <path class="cls-2" d="M156.14,29.66v-5.11h15.87v5.11h-15.87ZM161.16,46.01V15.61h5.82v30.4h-5.82Z"/>
      </g>
      <path class="cls-1" d="M368.24,36.91c-.67-.76-1.68-1.09-2.68-.88-13.88,2.84-29.27-.88-40.4-9.71,2.89-3.02,4.79-6.44,5.54-9.99.97-4.63-.38-9.12-3.62-12.02-3.44-3.08-8.31-3.45-11.84-.9-3.13,2.26-5.03,6.31-4.85,10.31.18,3.98,2.16,8.03,5.86,12.03.11.11.21.23.32.34-1.36.85-2.82,1.58-4.3,2.14-5.25,1.99-11.2,2.38-16.76,1.11-5.78-1.33-10.77-4.36-14.07-8.54-1.56-1.98-2.81-4.19-4.14-6.53-2.06-3.64-4.2-7.41-7.59-10.29-3.07-2.6-6.7-3.97-10.51-3.97h0c-3.66,0-7.57,1.23-10.99,3.48-7.33,4.8-10.64,13.18-12.47,19.48-5.23-7.52-13.81-12.64-23.26-13.66-5.99-.65-12.14.63-17.32,3.61-5.09,2.92-9.48,7.48-12.36,12.85-3.31,6.18-4.53,13.21-3.42,19.78.23,1.34,1.3,2.23,2.6,2.23.16,0,.32-.01.49-.04,1.62-.27,2.68-1.74,2.41-3.33-1.6-9.47,3.15-20.02,11.55-25.66,4.09-2.75,8.82-4.12,13.67-3.97,4.77.15,9.53,1.67,13.76,4.4,4.75,3.07,8.34,7.47,10.11,12.41.43,1.2,1.63,2,2.91,1.91,1.22-.07,2.2-.89,2.49-2.1l.08-.33c1.81-7.55,3.86-16.1,9.76-21.31,2.71-2.39,6.03-3.88,9.11-4.09,3.05-.21,5.87.82,8.18,2.98,2.59,2.42,4.35,5.52,6.21,8.8,1.63,2.87,3.31,5.83,5.63,8.38,4.36,4.8,10.59,8.11,17.53,9.33,6.85,1.21,13.72.42,19.86-2.26,1.76-.77,3.46-1.72,5.06-2.83,10.89,9.08,25.79,13.67,40.17,12.33,1.95-.18,3.93-.48,5.88-.88.97-.2,1.72-.85,2.02-1.75.32-.95.08-2.06-.61-2.84ZM319.95,7.41c.22-.04.44-.06.65-.06.77,0,1.53.25,2.23.75,2.71,1.93,2.86,5.41,2.16,7.8-.68,2.34-2.07,4.62-4.03,6.66-4.93-5.08-6.21-9.51-3.8-13.18.7-1.07,1.69-1.77,2.79-1.97Z"/>
    </g>
  </g>
</svg>