
<svg id="Capa_2" data-name="Capa 2" xmlns="http://www.w3.org/2000/svg" viewBox="0 0 384.19 96.57">
  <defs>
    <style>
      .cls-1 {
        fill: #da42bd;
      }
    </style>
  </defs>
  <g id="Capa_1-2" data-name="Capa 1">
    <path class="cls-1" d="M382.68,74.62c-1.36-1.53-3.39-2.2-5.42-1.79-28.07,5.74-59.17-1.78-81.69-19.63,5.84-6.11,9.69-13.02,11.2-20.19,1.97-9.36-.77-18.44-7.32-24.3-6.96-6.22-16.8-6.97-23.94-1.82-6.33,4.57-10.17,12.76-9.8,20.85.37,8.05,4.36,16.24,11.85,24.32.21.23.43.46.65.69-2.76,1.72-5.71,3.19-8.68,4.32-10.61,4.03-22.65,4.82-33.9,2.24-11.68-2.68-21.78-8.82-28.44-17.27-3.15-4-5.68-8.48-8.36-13.21-4.17-7.37-8.48-14.99-15.35-20.8C177.27,2.78,169.92,0,162.21,0h-.02c-7.41,0-15.3,2.5-22.22,7.03-14.83,9.71-21.51,26.64-25.22,39.39-10.58-15.21-27.91-25.55-47.02-27.61-12.11-1.31-24.55,1.28-35.03,7.29-10.3,5.9-19.17,15.13-24.98,25.97C1.02,64.58-1.43,78.78.81,92.07c.46,2.7,2.63,4.5,5.26,4.5.32,0,.65-.03.99-.08,3.28-.55,5.42-3.51,4.88-6.74-3.23-19.14,6.37-40.48,23.35-51.87,8.27-5.55,17.83-8.33,27.65-8.02,9.64.3,19.26,3.38,27.82,8.9,9.61,6.2,16.87,15.11,20.45,25.09.87,2.42,3.29,4.04,5.87,3.86,2.47-.13,4.45-1.8,5.03-4.24l.16-.67c3.65-15.26,7.8-32.56,19.74-43.09,5.48-4.83,12.19-7.85,18.43-8.28,6.17-.43,11.87,1.66,16.54,6.02,5.24,4.9,8.79,11.16,12.55,17.78,3.29,5.8,6.7,11.8,11.38,16.95,8.82,9.7,21.41,16.4,35.44,18.87,13.84,2.44,27.73.85,40.15-4.58,3.56-1.56,6.99-3.48,10.22-5.73,22.01,18.35,52.15,27.64,81.22,24.93,3.94-.37,7.94-.96,11.88-1.77,1.95-.4,3.48-1.72,4.09-3.55.64-1.92.16-4.17-1.23-5.74ZM285.06,14.98c.44-.08.88-.12,1.32-.12,1.56,0,3.1.51,4.51,1.52,5.48,3.9,5.78,10.94,4.37,15.77-1.38,4.74-4.18,9.34-8.15,13.46-9.97-10.28-12.55-19.23-7.69-26.64,1.41-2.15,3.41-3.57,5.63-3.99Z"/>
  </g>
</svg>