
<svg id="Capa_2" data-name="Capa 2" xmlns="http://www.w3.org/2000/svg" viewBox="0 0 495.59 636.66">
  <defs>
    <style>
      .cls-1 {
        fill: #101a2d;
      }

      .cls-2 {
        fill: #1f3156;
      }

      .cls-3 {
        fill: #da42bd;
      }

      .cls-4 {
        fill: #610d75;
      }
    </style>
  </defs>
  <g id="Capa_1-2" data-name="Capa 1">
    <g>
      <g>
        <path class="cls-1" d="M358.28,465.67c-.63,2.27-2.76,2.1-4.65,2.89-17.06,7.21-43.02,10.15-57.2,22.63,3.01-4.02,8.16-6.56,12.67-8.61,11.99-5.44,25.18-8.03,37.57-12.36,2.11-.74,8.12-2.58,9.53-3.54.77-.52.81-.72.94-1.59.56-.25,1.03.55,1.13.57Z"/>
        <path class="cls-1" d="M77.38,286.97l.57.56h-1.13c.2-.17.36-.39.57-.56Z"/>
        <path class="cls-1" d="M74.54,289.81c.62-.63.95-1.04,1.7-1.7l-1.7,1.7Z"/>
        <g>
          <path class="cls-3" d="M182.36,612.04c.18.07,1.55,1.69,3.02,2.37,6.42,2.97,17.49,3.9,24.22,1.88.86-.26,1.73-1.3,2.27-1.41.73-.15,5.89,1.33,6.81,1.7,1.95.8,11.75,6.56,12.81,7.9,1.88,2.36,1.38,6.3-1.99,7.17-8.33,2.15-22.04.19-30.36-2.06-1.9-.51-4.56-2.11-6.34-2.25-1.08-.09-.47,1.18-1.61,1.22-.93.03-8.27-1.15-8.81-1.49-2.23-1.39-2.92-11.06-2.87-13.65.02-.73.59-1.3.59-1.37.63.13,1.81-.19,2.27,0Z"/>
          <path class="cls-3" d="M136.96,610.33c0,.77.39,1.14.91,1.62,2.54,2.35,12.08,6.9,15.55,7.74,3.5.85,11.88,2.58,13.06-1.99.76.43,3.9,1.06,5.11,1.7,2.63,1.41,11.19,8.82,12.19,11.37s-2.25,2.7-4.22,3.13c-6.88,1.49-13.49.88-20.25-.81-4.19-1.04-11.51-5.1-14.37-5.48-.74-.1-1.38.88-2.54.91-1.01.03-6.75-1.13-7.45-1.7-2.04-1.65-2.18-9.62-1.88-12.17.22-1.91,1.5-3.63,1.64-4.32h2.27Z"/>
          <path class="cls-1" d="M166.47,617.71c-1.45-.83-9.44-7.67-10.51-9.06-2.67-3.48-2.19-7.36-1.97-11.64,1.09-21.11,6.62-49.19,10.96-70.17.22-1.04,1.46-8.59,2.8-5.43.78,1.84.7,7.21,1.07,9.71,3.54,24,9.15,47.76,12.81,71.73.46,3.04.91,6.1.73,9.2-.46-.19-1.64.13-2.27,0,.03-3.16-.22-6.08-.73-9.2l-12.88-71.92c-2.56,16.6-6.29,33.04-8.44,49.72-1.12,8.67-2.24,17.62-2.05,26.29l15.59,12.49c-1.2-.65-4.35-1.27-5.11-1.7Z"/>
          <path class="cls-1" d="M202.22,509.92c1.12.64,1.48,5.29,1.11,5.65-.51.49-2.45-1.09-2.84,1.98-.83,6.44.55,13.46.62,19.86.18,16.72-.57,33.26-.05,49.97.12,3.97.08,11.17.63,14.69.9,5.8,12.73,10.93,16.99,14.5-.92-.37-6.08-1.85-6.81-1.7.28-1.26-.69-1.2-1.4-1.69-5.81-4.01-10.25-6.27-11.01-13.98-.58-5.91.11-12.63-.05-18.67-.47-18.06-.38-36.37-1.18-54.41-.15-3.3.16-6.65.02-9.95-4.55.55-9.05,1.24-13.62,1.7-.32-1.83.93-.97,1.99-1.11,5.23-.68,10.32-1.6,15.57-1.76.11-1.68-.01-3.39.03-5.07Z"/>
          <path class="cls-1" d="M168.17,519l-21.57,3.68c-2.29,1-12.72,2.34-13.51,4.08-1.32,2.96-.88,22.59-.7,27.15.77,18.83,4.62,37.54,4.56,56.42h-2.27c.38-1.92.11-7.12,0-9.35-1.23-23.68-5.32-45.59-4.56-69.81.07-2.3,2.16-4.91-1.68-4.23,0-.09-.49-.32-.57-.56,7.45-1.42,14.89-4.06,22.59-5.52,6.06-1.14,11.88-1.52,17.71-1.87Z"/>
          <path class="cls-1" d="M172.71,479.86c-8.2-2.15-17.77-4.23-25.67-6.99-.92-.32-1.86-.09-1.57-1.52,7.69,2.07,16.15,4.26,23.7,6.66,1.22.39,2.93.55,3.54,1.85Z"/>
          <path class="cls-1" d="M196.55,401.57c1.15-2.04,2.95-4.24,4.52-5.97,2.12-2.34,16.61-17.1,18.14-17.6,6.64-2.19,3.9,7.01,1.17,9.95l23.05-5.05c4.06-.06,2.84,1.66,3.77,3.2.28.47,1.71.5,2.05,1.68.09.32.05,6.19-.03,6.57-.55,2.59-4.78,8.22-7.01,10.04-9.17,7.48-23.6,8.89-34.89,11.36-.07-.19-.84-1.08-1.13-1.7,10.99-2.79,23.96-4.03,33.46-10.52.67-.46.83-1.32,1.14-1.56.58-.45,1.15-.36,1.67-.8.13-.11,2.78-2.21.91-1.86-2.79,2.2-6.47,4.27-9.79,5.53-.55.21-7.45,2.41-5.25.14.35-.36,7.64-3.43,9.09-4.25,1.8-1.03,11.52-6.23,9.63-8.81-4.16,2.89-12.34,8.09-17.36,8.46-.56.04-1.92.28-1.36-.79.47-.89,14.76-6.38,17.78-9.46.49-.5,1.64-1.46.94-2.18-.8-.81-18.32,8.54-21.56,6.52,5.31-3.52,12.98-4.66,18.3-7.81.62-.37,1.41-.77,1.56-1.55-8.67,1.72-17.59,2.88-26.24,4.68-1.38.29-2.59.94-3.83,1.56l4.95-7.24c.26-.69,2.03-4.69.43-4.66s-20.49,20.12-22.42,23.25c-.08-.07-1.61-1.09-1.7-1.13Z"/>
          <g>
            <path class="cls-1" d="M130.15,289.24c3.52,3.78,5.93,9.24,6.18,14.55.14,2.86-1.15,4.42-1.1,6.7.19,7.4,4.89,16.57,4.58,26.15-.44,13.88-10.12,21.13-23.29,21.82.62,1.34.8,3.1.57,4.53s-1.04,2.14-2.27,2.84c.24-2.34-.17-4.99,0-7.38-3.18-.17-7.01-.59-10.01-1.62-.74-.26-1.73-.16-1.91-1.2,13.09,1.43,30.27,1.75,33.88-14.07,1.89-8.27-2.41-32.87-6.64-40.39,1.68.8,3.34,7.92,5.1,6.24.68-6.78-2.15-12.39-5.1-18.16Z"/>
            <g>
              <path class="cls-1" d="M94.97,483.83c.56.12,3.11,1.59,4.54,1.98,4.09,1.11,8.31,1.8,12.38,2.94.92.26,2.02.16,2.37,1.32-7.02-1.61-17.54-4.16-24.4-3.68-1.02.07-1.96,1.03-1.71-.86,2.22-.1,6.24-1.83,6.81-1.7Z"/>
              <path class="cls-1" d="M136.4,494.04c-.43,1.38-2.51-.33-2.83,0-.07.07.01,1.35-.52,2.02-1.68,2.1-5.86-.94-8.11-1.05l-10.1-4.94c6.53,1.49,11.57,5.32,18.16,5.67-.74-2.1-3.08-3.29-4.93-4.42-1.86-1.13-9.99-4.25-10.39-4.66-1.17-1.22,1.28-1.17,1.93-1.08,5.93.87,11.41,6.09,16.79,8.46Z"/>
              <path class="cls-1" d="M135.83,491.77c-1.85-4.54-8.66-7.11-12.69-9.15-.59-.3-1.7-1.21-.08-1.06,7.73,1.2,12.15,6.97,17.88,11.35-.15.03-.24.73-1.09.32-1.48-.71-2.67-4.4-4.02-1.46Z"/>
              <path class="cls-1" d="M129.59,475.88c.78-.88,4.63.77,5.28,1.13.79.44,4.07,3.55,4.9,4.43,1.83,1.95,2.99,4.53,5.13,6.2,1.35,2.37-.49,2.06-1.5,3.2-.31.35-.32,1.09-.76,1.49l-3.59-5.49c-4.91-3.13-8.79-7.99-15.14-8.13-.19-1.49.16-1.16,1.36-1.07,3.67.26,7.81,2.41,10.57,4.76,2.86,2.43,4.47,6.66,8.5,7.1-2.89-7.32-7.83-10.69-14.75-13.61Z"/>
            </g>
          </g>
          <g>
            <g>
              <path class="cls-4" d="M196.55,401.57c.09.04,1.62,1.07,1.7,1.13,2.4,1.99,6.52,8.41,7.94,11.35.3.62,1.07,1.51,1.13,1.7.24.69.37,1.85.06,2.58-.48,1.13-4.64,6.06-5.75,7.33-6.62,7.56-25.04,25.37-34.57,27.28-13.94,2.79-22.37-7.55-30.52-16.61-.22-.24-.47-1.68-1.29-.73-.33.38-1.09,8.57-1.16,9.91-.39,7.47,0,15.57.59,23-5.76-.19-12.95,1.07-19.29,1.13-1.24.01-3.2-.42-3.97.57-1.17.01-7.67.29-7.95,0-.22-.23.27-2.51-.02-2.82-.2-.21-4.19-1.07-5.46-1.63-9.37-4.09-22.13-11.77-30.78-17.45-5.73-3.76-7.9-4.14-7.41-11.86s5.06-17.35,5.61-25.03c.28-4-2.16,1.22-2.61,2.5-2.17,6.09-5.38,19.12-5.32,25.37.04,4.27,1.28,5.61,4.4,8.12,6.77,5.44,19.82,12.51,27.78,16.48,2.15,1.07,10.6,4.01,11.59,4.89.85.76-.17,3.1-.59,4.26-1.37,3.78-3.52,7.4-5.67,10.78-.57-.13-4.59,1.6-6.81,1.7-.38.02-.76,0-1.13,0-.57,0-1.13,0-1.7,0-10.73-4.35-24-5.79-35.18-10.21-1.63-.64-3.57-1.45-5.11-2.27-5.14-2.75-12.02-8.25-14.47-13.62-5.77-12.67,2.15-49.72,6.52-63.54.27-.85.4-1.8.57-2.27,4.18-11.86,15.12-25.62,27.81-28.93,3.16-.83,8.86.23,13.05-.57,5.94,8.39,15.27,15.9,26.25,14.05,5.63-.95,9.52-7,10.07-12.35,1.23-.69,2.03-1.39,2.27-2.84,22.96-.99,31.82,17.34,39.01,35.6,1.22,3.11,6.48,20.11,8.1,20.88,1.96.93,8.76-3.45,10.72-4.62,6.51-3.88,12.95-8.78,18.8-13.59.83-.4,2.03-.03,2.82.31ZM139.23,398.16v21.84c0,1.97-.95,4.66-1.7,6.52,2.55,1.94,4.4-7.98,4.53-9.36.41-4.44-.16-13.53-1.54-17.76-.31-.96.26-1.49-1.29-1.24Z"/>
              <path class="cls-1" d="M100.64,473.05c.42-1.15,1.44-3.49.59-4.26-.99-.88-9.44-3.82-11.59-4.89-7.96-3.97-21.01-11.04-27.78-16.48-3.12-2.51-4.35-3.85-4.4-8.12-.07-6.25,3.15-19.28,5.32-25.37.46-1.28,2.9-6.5,2.61-2.5-.54,7.68-5.1,16.94-5.61,25.03s1.68,8.1,7.41,11.86c8.66,5.68,21.41,13.36,30.78,17.45,1.27.55,5.27,1.42,5.46,1.63.29.3-.2,2.59.02,2.82.27.29,6.77,0,7.95,0,1.24-.01,3.2.42,3.97-.57,6.34-.07,13.53-1.32,19.29-1.13.37.01.78-.05,1.13,0-1.86,3.28-4.04.82-5.89,1.1-.39.06-.32,1.17-.67,1.19-.66.04-2.01-.71-3.36-.64-4.54.25-9.28,1.6-13.9,1.19l4.86,1.12,1.95,1.14c-5.57-.91-13.03-2.9-18.16-.57Z"/>
              <path class="cls-1" d="M139.23,398.16c1.54-.25.98.28,1.29,1.24,1.38,4.22,1.95,13.32,1.54,17.76-.13,1.39-1.98,11.3-4.53,9.36.75-1.85,1.7-4.55,1.7-6.52v-21.84Z"/>
              <path class="cls-2" d="M115.4,469.64c-.77.99-2.73.56-3.97.57.77-.99,2.73-.55,3.97-.57Z"/>
            </g>
            <g>
              <path class="cls-1" d="M173.28,479.86c13.6,3.45,27.86,9.46,28.37,25.53-1.53-2.73-1.83-6.8-3.17-9.6-4.47-9.31-16.61-11.95-25.21-15.93Z"/>
              <path class="cls-1" d="M202.22,509.35c-.93-.6-.59-2.35-.57-3.4,1.59,1.18.57,2.52.57,3.4Z"/>
              <path class="cls-1" d="M50.14,475.32c-1.16.7-3.91-.62-5.03.08-.59.38-.44,2.73-.68,3.46-.19.57-1.04.48-1.27,1.12-1.03,2.92-2.02,7.25-2.13,10.34-.28,8.49,3.51,15.78,9.1,21.3-3.89-2.34-7.29-7.23-8.67-11.47-3-9.21-.72-18.73,3.57-27.11,1.53.82,3.48,1.62,5.11,2.27Z"/>
              <path class="cls-1" d="M87.02,485.53c-.44,1.43-1.32.15-1.7,0,.57,0,1.13,0,1.7,0Z"/>
              <path class="cls-1" d="M50.71,512.19c1.09-.1,1.92.38,2.85.83,16.97,8.13,37.82,8.35,56.08,13.75,1.43.42,1.41.12,1.22,1.87-5.85-1.67-11.59-3.56-17.57-4.84-9.33-2-36.6-5-42.58-11.61Z"/>
              <path class="cls-1" d="M128.45,475.32c-.37-.03-.77.05-1.13,0,.71-.95.81-.15,1.13,0Z"/>
            </g>
          </g>
          <g>
            <path class="cls-2" d="M127.32,286.41c1.41,1.01,1.78,1.7,2.84,2.84,2.96,5.77,5.79,11.38,5.1,18.16-1.77,1.68-3.43-5.45-5.1-6.24-.29-.51-4.24-5.89-4.53-5.67-.05,2-6.33,11.77-7.38,11.91-.04,0-.3-.51-.56-.58-.09.35.1.93-.01,1.14-.42.81-.89.83-1.13,1.13l-3.4,3.4c-.18.14-.33.41-.57.57-.26.17-2.58.51-1.13,1.13-2.74,2.64-11.5,9.12-15.17,7.52-1.26-.55-1.77-2.1-3.28-2.4-1.74-.35-3.89.2-5.38,1.12-4.51,2.8-3.9,9.28-.56,12.76,1.21,1.26,5,2.68,5.11,2.96.7,1.67.79,12.31.51,14.59-.76,6.14-4.27,9.23-9.86,11.12-16.47,5.56-35.72-.26-33.07-20.58l2.69-7.81c.18-.19.39-.37.57-.57.05-.06.85.06,1.41-.56,8.15-8.89,7.94-19.4,12.51-30.06,1.95-4.55,4.38-7.9,7.07-11.93.18-.2.38-.38.57-.57l1.7-1.7c.2-.18.36-.39.57-.57h1.13s-.57-.57-.57-.57c.78-.64,1.44-1.13,2.27-1.7l9.1-3.66c13.15-4.12,27.16-3.35,38.57,4.8Z"/>
            <path class="cls-1" d="M79.65,285.27c12.99-8.9,35.9-10.48,47.67,1.13-11.41-8.15-25.42-8.92-38.57-4.8l-9.1,3.66Z"/>
            <path class="cls-1" d="M73.97,290.38c-2.7,4.03-5.12,7.38-7.07,11.93-4.57,10.66-4.36,21.17-12.51,30.06-.56.61-1.36.5-1.41.56,2-3.41,5.02-5.87,6.52-9.65,5.29-13.28,3.38-21.1,14.48-32.9Z"/>
            <path class="cls-1" d="M87.59,320.44c-5.11,6.93-1.44,16.23,7.94,14.19-.05.92-1.55.81-1.71,1.53-1.07,4.65.5,9.24-.14,13.92-1.09,7.96-7.75,12.64-15.18,14.05-4.19.79-9.89-.26-13.05.57-13.58-2.03-23.38-20.18-13.05-31.2l-2.69,7.81c-2.65,20.32,16.6,26.13,33.07,20.58,5.6-1.89,9.1-4.99,9.86-11.12.28-2.28.19-12.92-.51-14.59-.11-.27-3.91-1.7-5.11-2.96-3.34-3.48-3.94-9.96.56-12.76Z"/>
            <path class="cls-1" d="M112.56,313.07c-.16.64-.79.8-1.13,1.13-1.45-.63.88-.96,1.13-1.13Z"/>
            <path class="cls-1" d="M118.24,307.4l-.57.57c.11-.21-.08-.79.01-1.14.26.06.52.58.56.58Z"/>
            <path class="cls-1" d="M113.13,312.5l3.4-3.4c-1.18,1.48-1.9,2.23-3.4,3.4Z"/>
          </g>
        </g>
        <g>
          <path class="cls-1" d="M37.65,393.63c-.16.47-.3,1.42-.57,2.27-6.25.66-12.73.83-18.94,1.77-17.69,2.7-17.01,15.65-15.02,30.18,2.85,20.75,6.68,43.51,10.87,64.02,1.72,8.43,6.56,30.54,15.69,33.67,6.3,2.15,21.22.52,28.7.81,6.56.26,13.25,1.47,19.82,1.75,10.39.45,19.61-.07,30.18,1.05.93.1,2.46.46,3.05-.5,2.13.59,1.97,1.42,5.67,1.13.32,1.65-.88,1.21-1.96,1.13-2.69-.21-5.84-1.02-8.52-1.15-5.42-.26-10.82.29-16.2.59.6,10.39,1.65,20.79,1.71,31.2,0,1.6-.46,3.99.57,5.11.12,17.7,2.55,36.32,3.43,54.15.12,2.36-.13,4.76-.03,7.12-1.99.62-2.11-1.32-2.26-3.13-1.16-14.07-2.2-29.89-2.27-43.96,0-1.6.46-3.99-.57-5.11-.54-15.13-2.17-30.26-2.83-45.39l-54.41-2.19-24.6,94.82-2.14.97,23.86-96.13c-9.59-2.26-13.88-15.61-16.2-24.13-4.61-16.9-7.52-36.93-10.32-54.36-1.77-11.07-7.11-33.94-2.55-43.61,6.15-13.04,23.89-10.28,35.85-12.09ZM92.13,567.22h-.57v7.94h.57v-7.94Z"/>
          <path class="cls-2" d="M92.7,566.65c-1.03-1.12-.56-3.51-.57-5.11,1.03,1.12.56,3.51.57,5.11Z"/>
          <path class="cls-2" d="M91.56,580.83c-1.06-1.14-.51-3.49-.57-5.11,1.03,1.12.56,3.51.57,5.11Z"/>
          <rect class="cls-2" x="91.56" y="567.22" width=".57" height="7.94"/>
        </g>
        <path class="cls-1" d="M462.7,396.46c11.12.79,26.48-.35,31.48,11.92,3.56,8.73-.58,27.19-2.14,36.98-3.06,19.15-6.45,42.94-11.91,61.27-2.47,8.31-6.35,18.67-15.18,21.75l24.34,97.17c-.43,0-1.47.77-1.61.66-.23-.17-1.3-4.66-1.55-5.55-8.44-30.36-14.62-61.4-23.37-91.68-.78-1.09-4.67.21-6,.25-14.3.4-28.92.16-43.17,1.09-1.43.09-2.78.57-4.21.62-.05,4.41-.21,8.9-.6,13.3-2.49,28.08-5.62,56.15-7.95,84.25h-2.26s8.5-98.14,8.5-98.14c-4.43,1.23-9.45-.68-14.18,0,1.37-.09,4.76-1.18,6.24-1.7,14.28,0,27.57-1.17,41.69-1.73,7.95-.32,22.75,2.15,28.42-3.36,11.09-10.76,15.58-49.26,18.25-65.14,1.85-10.97,6.54-30.47,6.43-40.65-.06-5.72-2.9-12.32-7.78-15.53-5.25-3.46-16.58-2.85-22.89-3.5-.19-.74-.36-1.55-.57-2.27Z"/>
        <g>
          <path class="cls-4" d="M344.66,608.63c1.93.46,9.18.12,11.63,0,4.54-.24,9.49-1.32,14.09-1.61.53.13.92.64,1.23,1.06,1.03,1.4.17,3.62,2,3.39-.22,5.63.21,11.33-.06,16.96-8.3,2.37-16.71,4.37-25.27,5.66-6.29.94-14.08,2.03-20.36,2.34-5.08.25-15.63,1.59-10.97-6.42,5.22-8.97,18.64-12.49,25.65-18.61,1.02-.89,1.16-1.9,2.06-2.76Z"/>
          <path class="cls-4" d="M318.56,603.53c.46,7.31-1.11,15.12,1.13,22.12-8.64.72-17.21,2.55-25.83,3.4-7.87.78-17.15,1.64-24.99,1.16-6.3-.38-14.87-1.58-7.08-8.82,6.28-5.83,22.91-9.38,26.81-14.62.52-.7.82-1.82,1-2.68,1.62.33,4.15-.16,5.98-.02.73.06,1.49.59,1.68.59h15.32c.51,0,5.26-.9,5.96-1.13Z"/>
          <g>
            <path class="cls-2" d="M399.14,528.64c-1.48.52-4.87,1.61-6.24,1.7-3.29.22-7.75-1.25-11.35-.57.02-.19-.03-.38,0-.57.24-.06.47-.33.57-.57h17.02Z"/>
            <path class="cls-1" d="M295.86,491.77c.04,1.79-2.17,3.15-2.78,4.43-6.87,14.24-6.78,43.45-6.89,59.37-.1,14.46.11,28.78.63,43.05.11,2.92.96,3.84,3.71,4.29,6.04.97,16.57,1.38,22.58.55,1.24-.17,5.8-.8,6.33-1.61.7-1.07.24-8.36.41-10.36.66-7.54,2.45-15.26,2.21-22.92-.03-1.09-.74-2.2,1.05-1.91-.22,4.48-.36,9.24-.72,13.74-.6,7.46-1.85,14.76-2.1,22.19-.08.27-1.37.83-1.71.95-.7.23-5.45,1.13-5.96,1.13h-15.32c-.19,0-.95-.53-1.68-.59-1.83-.14-4.36.35-5.98.02-3.45-.7-3.79-4.78-4-7.64-1.24-17.52-.56-36.33.05-53.89.48-13.77-.14-40.69,10.19-50.8Z"/>
            <path class="cls-1" d="M379.85,546.8c-.99,18.92-3.24,38.05-4.77,56.91-.07.91-.19,2.01-.91,2.66,1.02-19.2,3.83-38.58,4.54-57.61.04-1.09-.58-2.27,1.14-1.96Z"/>
            <path class="cls-1" d="M341.26,606.36c5.81,1.37,11.88,1.41,17.87,1.13,3.77-.18,7.94-1.79,11.8-1.01,1.62.33,2.32,2.67,3.24.45-.09,1.66-.5,2.92-.57,4.54-1.83.23-.96-2-2-3.39-.32-.43-.71-.94-1.23-1.06-4.59.29-9.55,1.38-14.09,1.61-2.45.13-9.7.46-11.63,0-.2-.05-3.08-1.92-3.4-2.27Z"/>
            <path class="cls-1" d="M338.42,515.6c-9.18,2.8-9.07,8.07-10.62,16.33-1.21,6.47-1.35,13.1-3,19.41.51-8.33,1.01-17.82,2.97-26.25.75-3.25,2.24-6.27,5.13-7.94,1.07-.62,4.62-2.53,5.52-1.55Z"/>
            <path class="cls-1" d="M338.99,566.65c-.81-13.96.23-28.99,0-43.11v43.11Z"/>
            <path class="cls-1" d="M340.12,601.26c-1.23-9.86-.26-20.08-.57-30.07.38,8.79.52,18.03,1.17,26.93.07.91.28,2.57-.6,3.14Z"/>
            <path class="cls-1" d="M381.55,529.21c-.03.18.02.38,0,.57-.55,4.35-.59,8.78-1.7,13.05,0-.07-.58-.47-.54-1.31.15-3.81,1.27-8.08,1.08-11.97.1-.65.8-.25,1.17-.33Z"/>
            <path class="cls-1" d="M381.55,529.21c.03-.18-.02-.38,0-.57h.57c-.09.24-.32.51-.57.57Z"/>
            <path class="cls-1" d="M324.8,555.31c-.18,3.51-.14,7.64-1.7,10.78.13-3,.29-5.81.59-8.8.11-1.07-.68-2.29,1.12-1.98Z"/>
            <path class="cls-1" d="M447.94,479.29c3.97,11.21,2.98,28.01-8.12,34.72-5.72,3.45-14.15,5.31-20.72,6.52-4.09.75-12.22,2.37-15.99,2.45-.43-1.52,1.8-1.4,2.71-1.54,13.4-2.03,35.96-3.18,41.26-17.76,2.79-7.66,2.5-15.47.28-23.25l-3.97.57c1.2-.52,3.73-1.28,4.54-1.7Z"/>
            <path class="cls-1" d="M394.03,477.59c-9.36-1.72-22.71,1.64-30.64,6.81,4.74-4.25,12.79-6.84,19.07-7.88,2.82-.47,6.32-.24,9.06-.58,1.24-.15.69-1.07,1.38-1.75.16.6.84,2.49,1.13,3.4Z"/>
            <path class="cls-1" d="M401.98,522.97c-6.88,1.47-13.84,2.56-20.43,5.11.06-.3-.17-.76.08-1.04,1.38-.18,2.53-1.25,3.78-1.63,5.53-1.68,11.4-1.85,16.57-2.44Z"/>
            <path class="cls-1" d="M339.84,519c.37.19.37.38,0,.57v-.57Z"/>
          </g>
          <g>
            <path class="cls-2" d="M363.96,290.38c2.11-.46,4-1.92,6.09-2.7,11.17-4.22,29.17-6.65,40.61-2.85,2.67.88,5.12,2.93,7.78,3.86.2.17.37.39.57.57.29.26.78.78,1.13,1.13.19.19.38.37.57.57.88,2.37,2.61,3.77,3.81,6.12,4.8,9.44,3.63,15.76,1.87,25.65-.03.18.03.38,0,.57l-1.3,2.39-3.81,12.93c-1.18,1.87-1.42,1.95-2.84,3.4l-3.53,1.74-1,1.09c-1.25-2.57-1.32-5.59-2.84-7.93,1.84.38,2.15-1.18,2.84-1.71.12-.09.87-.87,1.13-1.13.06-.06.69.24,1.17-.36,1.77-2.18,2.03-7.2.64-9.71-.46-.83-1.06-1-1.25-1.28-.09-.12-.76-.69-1.13-1.13-.08-.1.25-.78-.34-1.18-3.07-2.08-6.87.87-9.88,1.18-.16-.38-.37-.77-.57-1.13-2.22-5.23-2.63-10.85-4.52-16.19-8.94-1.41-17.96-1.43-27-1.42-2.97,0-8.87,1.62-10.59-1.84-1.87-3.76-.73-7.04,1.82-10.05.19-.19.36-.39.57-.57Z"/>
            <path class="cls-1" d="M418.43,288.68c-2.66-.93-5.11-2.97-7.78-3.86-11.45-3.8-29.44-1.37-40.61,2.85-2.09.79-3.99,2.24-6.09,2.7,11.69-9.81,42.53-12.04,54.48-1.7Z"/>
            <path class="cls-1" d="M420.7,290.94c8.51,9.08,9.37,17.4,7.02,29.42-.18.92-.29,2.02-1.34,2.35,1.76-9.88,2.93-16.21-1.87-25.65-1.2-2.36-2.92-3.75-3.81-6.12Z"/>
            <path class="cls-1" d="M421.27,338.6l3.81-12.93,1.3-2.39c-1.07,5.64-1.96,10.31-5.11,15.32Z"/>
            <path class="cls-1" d="M420.14,290.38c-.36-.35-.84-.87-1.13-1.13l1.13,1.13Z"/>
            <g>
              <path class="cls-3" d="M325.93,352.21c.28.02,1.67.44,2.27.57,2.63.57,8.49,2.02,10.78,2.84.09.03.25.66.63.83.64.28,1.49.22,1.64.31.54.31.57,1.79.53,2.46-.33,5.63-2.43,12.03-2.8,17.97-2.23,8.4-2.49,17.27-6.25,25.24.68.99,1.21-.19,1.61-.66,1.84-2.14,4.3-9.3,4.63-12.1,12.56-13.26,26.5-24.51,45.4-26.66-.06,3.26.09,3.22,1.7,5.67.46.71.11,1.44,1.48,2.21,4.33,2.44,13.94,1.09,18.53-.64,5.74-2.16,10.45-5.51,9.5-12.34.48-.27,1.16-.62,1.7-.57,3.77.34,15.27,4.46,19.11,6.14,15.26,6.68,21.9,17.49,26.29,33,.2.72.37,1.53.57,2.27,4.39,16.78,11.62,53.44.57,67.79-3.12,4.05-11.34,10.42-15.89,12.76-.81.42-3.34,1.19-4.54,1.7-12.93,5.55-28.46,11.08-41.99,14.18-.45-1.26-.69-3.74-2.27-3.4-.57-4.4-3.72-9.93-5.11-14.18-.3-.91-.97-2.81-1.13-3.4-.07-.26-.02-.8,0-1.13,11.87-4.18,23.62-10.47,34.43-16.92,2.68-1.6,9.62-5.4,11.51-7.22,2.31-2.23,1.83-6.1,1.76-9.08-.24-10.22-2.07-25.04-4.01-35.14-.16-.83,0-1.76-1.12-1.99.04,7.27.57,14.57,1.13,21.84.36,4.61,3.1,19.34,1.16,22.59-9.78,5.73-19.47,11.88-29.53,17.14-5.07,2.65-9.61,5.88-15.33,5.38-8.06-.71-16.07-2.57-24.12-3.4-3.34-.34-7-.04-10.49-.57-.11-.02-.57-.81-1.13-.57.45-2.86-.21-6.87-.02-9.95.62-10.43.85-20.45,1.16-30.89,0-.08.58-.16.61-1.39.24-8.98-.24-18.02.52-26.97-1.48-.13-.94-.08-1.11.85-1.25,6.72-1.15,14.18-1.11,21.02-.34.3-1.1,1.86-1.18,1.95-3.63,4.16-16.02,10.23-21.44,11.75-12.3,3.45-28.53,1.56-30.13-13.81-1.57-15.11,9.59-44.45,16.29-58.46,1.07-2.24,2.65-7.16,5.21-6.99Z"/>
              <path class="cls-1" d="M356.01,419.72c.08-.09.84-1.65,1.18-1.95-.04-6.84-.14-14.3,1.11-21.02.17-.93-.37-.98,1.11-.85-.76,8.95-.28,17.99-.52,26.97-.03,1.23-.61,1.32-.61,1.39l-.57-5.1-1.7.56Z"/>
              <path class="cls-1" d="M392.9,473.05c.1-1.75,1-.92,1.7-2.26-1.26.06-2,.29-1.7-1.14,5.72.5,10.26-2.72,15.33-5.38,10.06-5.26,19.75-11.41,29.53-17.14,1.94-3.24-.8-17.98-1.16-22.59-.57-7.27-1.1-14.56-1.13-21.84,1.13.23.97,1.16,1.12,1.99,1.93,10.1,3.77,24.92,4.01,35.14.07,2.98.55,6.85-1.76,9.08-1.89,1.82-8.83,5.61-11.51,7.22-10.81,6.45-22.56,12.74-34.43,16.92Z"/>
              <path class="cls-1" d="M338.99,389.65c-.33,2.8-2.79,9.96-4.63,12.1-.4.47-.93,1.65-1.61.66,3.76-7.97,4.02-16.84,6.25-25.24-.25,3.99.45,8.64,0,12.48Z"/>
            </g>
            <g>
              <path class="cls-1" d="M403.68,320.44c-.52-.94-1.42-1.5-2.13-3.26-1.01-2.48-2.25-11.71-3.54-12.35l-33.55-.52c-.35,1.8-.89,3.83-1.06,5.64-1.04,11.31-2.32,37.35,8.31,44.43,8.12,5.4,16.81.61,25.16-1.03-.88,2.96-8.53,3.7-9.52,4.66-.79.76-1.23,8.93-1.26,10.65-1.61-2.45-1.76-2.42-1.7-5.67.03-1.61.59-2.96.56-4.54-24.37,5.23-25.6-25.42-23.83-41.98-3.48,4.03-7.8,8.32-13.05,9.65.69,1.52,2.68.99,4.18,1.77,2.55,1.32,1.51,2.29,1.82,3.95.75,3.94-.4,4.63-.19,6.39.1.86,1.01,1.38.9,2.78-.21,2.48-5.53,8.4-7.58,10.06-2.13,1.73-5.96,2.52-5.94,5.69-.15-.08-1-.03-1.64-.31-.38-.17-.53-.79-.63-.83.88-3.86,5.76-5.04,8.51-7.66.9-.86,4.89-5.95,5.04-6.93.38-2.43-2.55-1.87-2.2-3.27,3.14-1.51,3.37-5.63-.56-5.97l2.27-1.41c-1.9-1.87-4.75-1.86-7.18-2.48-.44-.11-1.87.18-1.33-.92.27-.54,8.45-4.79,10.22-6.24,1.07-.88,6.85-6.35,5.66-7.66-2.96,1.21-5.36,3.54-8.13,5.2-4.49,2.71-12.51,5.59-15.69,9.28-5.59,6.48-5.11,17.35-7.39,25.23-.6-.13-1.99-.55-2.27-.57,2.32-8.27,1.98-18.68,7.65-25.54,3.82-4.62,8.36-5.58,13.16-8.41,2.11-1.24,11.03-7.5,12.4-7.46.91.03,1.22.93,1.96,1.12-.48-2.57,1.35-6.57,1.17-8.81-.11-1.33-1.66-1.09-2.05-2.48-1.38-4.82.13-6.74,3.16-9.7-2.55,3.01-3.69,6.29-1.82,10.05,1.72,3.46,7.63,1.85,10.59,1.84,9.04-.02,18.06.01,27,1.42,1.88,5.34,2.3,10.97,4.52,16.19Z"/>
              <path class="cls-1" d="M413.89,335.19c-.69.53-1,2.09-2.84,1.71,1.52,2.34,1.59,5.36,2.84,7.93l1-1.09,3.53-1.74c-.63.65-1.95,1.35-2.31,1.94-1.43,2.37.86,10.3,1.17,13.37-.54-.05-1.22.3-1.7.57-.63-4.55-2.27-10.92-3.71-15.3-.94-2.85.03-4.18-3.67-5.98l5.67-1.42Z"/>
              <g>
                <path class="cls-1" d="M399.14,491.77c1.58-.34,1.82,2.14,2.27,3.4-7.7,1.76-15.34,3.53-23.29,4.24l-7.93,3.14c2.37-1.63,3.11-2.82,6.23-3.7,5.25-1.48,18.6-1.48,22.37-4.18.59-.42.43-2.2.34-2.9Z"/>
                <path class="cls-1" d="M359.98,487.23c-2.36,2.03-7.04,6.99-8.05,9.83-.23.64-.6,1.31.4,1.51.81.16,9.54-9.2,12.73-10.52.51-.21,1.86-.73,1.73.31-3.22,1.08-11.43,8.41-12.48,11.35-8.1-.09.47-7.12,2.25-10.52l3.43-1.96Z"/>
                <path class="cls-1" d="M358.85,498.58c3.61-3.11,6.45-6.08,11.07-7.93l-7.13,6.48-.53,3.15c.57.64,10.86-6.9,13.05-6.23-3.63,3.87-9.8,6.1-10.78,11.91-2.52-.43,2.81-5.13,1.7-6.24-1.06-1.06-2.19,2.1-4.14,1.62-1.14-.28-1.83-1.67-1.26-2.74h-1.98Z"/>
                <path class="cls-1" d="M358.28,499.14c-1.15.97-1.81,2.38-3.97,2.27,0-.37-.01-.75,0-1.13l3.97-1.13Z"/>
              </g>
            </g>
            <path class="cls-1" d="M415.6,322.71c.19.28.79.45,1.25,1.28,1.39,2.51,1.12,7.53-.64,9.71-.49.6-1.11.3-1.17.36,1.99-4,2.31-7.14.57-11.35Z"/>
            <path class="cls-1" d="M404.25,321.58c3.01-.31,6.8-3.26,9.88-1.18.59.4.25,1.08.34,1.18-4.01-2.13-6.59-.7-9.93,1.71-.63.02-.11-1.26-.29-1.71Z"/>
          </g>
        </g>
      </g>
      <path class="cls-3" d="M240.48,285.11c1.45,2.32,2.17,4.64,2.17,6.97,0,4.35-2.33,8.55-6.96,12.62-4.64,4.06-9.14,6.1-13.49,6.1-9.58,0-16.83-6.1-21.76-18.28-3.2-7.84-2.47-13.64,2.18-17.41,3.48-2.61,10.3-2.91,20.46-.87,8.41,1.74,14.22,5.36,17.41,10.88ZM327.97,37.89c2.02,8.13,3.05,16.11,3.05,23.94,0,22.06-8.27,46.43-24.81,73.13-14.8,22.35-29.45,44.69-43.96,67.03-3.48,7.26-6.96,14.51-10.45,21.76-4.64,8.13-10.6,12.62-17.85,13.49-14.8,1.74-21.91-.72-21.33-7.4,2.03-22.34,15.45-52.23,40.26-89.67,24.81-37.43,38.67-66.88,41.57-88.36.58-4.36-.29-8.34-2.61-11.97-2.33-3.63-5.66-5.44-10.01-5.44-3.78,0-8.56,2.9-14.36,8.7-4.07,5.51-10.6,13.78-19.59,24.81-2.03,2.61-4.64,10.74-7.84,24.37-2.03,9.29-7.69,13.49-16.98,12.63-12.19-1.16-19.01-6.97-20.46-17.42-.29-2.32-.43-4.63-.43-6.96,0-13.63,5.51-26.99,16.54-40.04,6.1-7.25,16.98-17.12,32.64-29.6C260.93,3.36,270.22-.27,279.22.02c11.32.59,21.61,4.21,30.9,10.88,9.28,6.68,15.23,15.67,17.85,26.99Z"/>
    </g>
  </g>
</svg>