
<svg id="Capa_2" data-name="Capa 2" xmlns="http://www.w3.org/2000/svg" viewBox="0 0 382.91 632.14">
  <defs>
    <style>
      .cls-1 {
        fill: none;
      }

      .cls-2 {
        fill: #121b3a;
      }

      .cls-3 {
        fill: #da42bd;
      }

      .cls-4 {
        fill: #1c2f4f;
      }

      .cls-5 {
        fill: #610d75;
      }
    </style>
  </defs>
  <g id="Capa_1-2" data-name="Capa 1">
    <g>
      <g>
        <path class="cls-5" d="M131.02,605.36c-8.54-.19-15.96,1.49-24.89-.57l-1.7,20.37c17.14,1.07,34.89,4.49,51.95,1.88,8.62-2.94,4.97-6.06-.66-9.34-4.17-2.43-9.04-4.16-13.4-6.4-2.4-1.23-8.27-5.51-10.17-5.95-.3-.07-.77,0-1.13,0Z"/>
        <path class="cls-5" d="M47.86,606.49c-1.76-.21-3.89-.74-5.66-1.13l-2.75,19.16c.34.52,10.57,2.03,12.17,2.26,9.48,1.33,26.9,3.82,35.74,1.39,2.89-.79,4.64-1.65,4.04-4.96-1.05-5.75-19.11-12.1-22.6-17.29-.96.2-1.83.43-2.83.57-6.04.79-12.07.73-18.1,0Z"/>
        <path class="cls-2" d="M134.39,573.95c.42,7.24-.05,17.54-.6,24.84-.06.84-.71,4.66-1.02,5.11-.46.69-2.19-.28-1.75,1.46.36,0,.83-.07,1.13,0l2.3-.89c.25-8.68.97-17.29,1.1-25.99.03-2.3.05-4.16,0-6.51-1.61-.34-1.22.93-1.16,1.98Z"/>
        <path class="cls-2" d="M71.59,599.95c-.33,1.53-1.72,3.52-1.68,5.41-.19.13-4.32-1.29-3.95,1.13,1-.13,1.86-.37,2.83-.57.93-.19,2.34.44,2.72-.96,1.04-7.73,3.57-15.71,4.4-23.41.09-.84-.34-1.04-.34-1.09l-1.64,3.73c-1.05,5-1.31,10.92-2.35,15.76Z"/>
        <path class="cls-2" d="M76.7,569.95c-.65,3.58-.75,6.43-1.12,9.94,1.04-.58.93-1.58,1.12-2.55.61-3.04,1.42-6.47,1.14-9.33-1.79-.33-.95.89-1.15,1.94Z"/>
        <path class="cls-2" d="M77.85,567.44c1.7-.9.55-2.13.57-2.26-2.1-.3-.83,1.09-.57,2.26Z"/>
        <path class="cls-2" d="M78.98,563.48l-.57,1.13c0-.06.44-.15.57-1.13Z"/>
        <path class="cls-3" d="M295.64,609.32c-4.58,1.78-8.84,4.93-14.14,6.51-6.64,1.99-11.59,1.75-18.11,2.54-1.14.14-2.94.31-3.96.57-6.37,1.59-13.93,9.1-3.53,10.6,12.49,1.8,24.87-2.35,37.07-3.94,4.01-1.24,3.41-12.74,3.8-16.29-.35.07-.87-.1-1.13,0Z"/>
        <path class="cls-3" d="M355.03,611.58c-6.27,3.05-10.87,6.23-17.98,8.32-3.57,1.05-4.51,1.35-7.76,1.3-1.95-.03-4-.11-5.94,0-.73.04-1.59-.11-2.26,0-3.99.64-12.44,6.87-6.07,9.75,5.55,2.5,19.76.52,25.87-.98,1.92-.47,14.63-4.41,15.3-5.06,2.06-2,.75-10.23.53-13.33-.51.62-1.62-.04-1.7,0Z"/>
        <path class="cls-1" d="M232.41,308.99c-1.67-.75-10.39-1.32-11.2-.19-2.55,3.55,6.72,5.66,7.05,6.63.93,2.7-2.14,4.42-2.63,6.28-.34,1.28.61,4.11-.98,4.1-3.42-2.45,2.62-8.52,1.73-9.64-.16-.21-3.72-1.72-3.96-1.71-.76.04-1.49,5.77-5.96.87-1.47-1.61-5.56-9.86-7.86-5.57-1.85,3.44.89,10.81,2.66,14.17,2.53,4.8,7.32,8.86,6.88,14.9,5.33-1.09,9.94-1.37,15.27-3.4-3.37-5.98,6-23.29-1-26.44ZM214.7,320.49c-1.1-.31-3.85-4.38-3.34-4.86,2.42-.6,2.56,2.84,4.37,3.31,1.24.32,2.33-.62,3.55-.48-.14,2.28-2.86,2.51-4.57,2.03Z"/>
        <path class="cls-1" d="M320.53,300.91c-1.14-4.97-.32-10.2-.57-15.28,1.74-.06,3.52.19,5.25-.13,8.52-1.55,9.28-18.48-.76-16.04-1.46.36-2.82,2-3.53,1.94-1.11-.1-4.81-2.59-6.05-3.31-3.69-2.15-6.99-4.53-10.18-7.36-1.4-1.25-2.15-1.95-3.39-3.4-.47-.55-1.15-.59-1.7-1.7l-.57-.57c-1.02-.13-5.4-7.89-5.1-9.62-.34-.34-7.11,4.38-7.91,5.09-6.11,5.4-8.9,13.83-9.54,21.86-.65,8.07-.5,17.07,2.76,24.54.18.19.4.36.57.57.86,1.08,1.78,2.06,2.26,3.4.33.33.84.88,1.13,1.13,5.95,4.63,12.68,5.16,19.62,2.37,3.57-1.43,6.22-4.28,9.79-5.19,1.1,1.01-5.14,4.79-5.84,5.19-1.3.73-2.81,1.48-4.19,2.03-1.23.49-5.03,1.1-5.22,1.29-.57.58,1.35,5.79-2.27,7.09-.85.3-1.7.09-2.27.25.22,5.88,2.83,8.81,8.02,10.93.96.39,2,.18,2.87.42.47.13.4.98.82,1.08.82.19,3.53.18,4.45.06.99-.13.76-.97,1.25-1.13,7.92-2.53,14.21-5.21,18.23-13.06-2.57-1.35-7.24-9.48-7.92-12.45ZM281.8,284.48c-2.4-2.86.65-9.57,2.22-12.45.24-.44,2.32-4.26,3.13-3.37.95,1.05-5.92,10.36-4.23,14.13.9,1.99,4.58,1.99,4.8,2.28,1.66,2.24-4.25,1.39-5.92-.59Z"/>
        <path class="cls-1" d="M362.95,449.17c.38,2.84-2.12,7.19-2.69,10.04-.37,1.83-1.51,12.15-1.15,13.33.44,1.45,1.66,2.02,2.73.7,1.89-2.33,2.9-11.78,3.39-12.18.07-.05,1.62-.06,1.68,0,1.01.95,1.48,22.82,1.7,26.03,1.97,2.05,3.96-6.29,3.96-7.07v-11.03h1.7v9.9l-2.26,8.77c.43.35,2.15-.69,2.56-1.11,2.58-2.63,2.32-14.25,2.53-18.12,1.62-.27.93.35,1.2,1.31.95,3.4-.09,8.16-.64,11.7,2.61-.16,3.1-3.97,3.32-6.01.99-9.1-.98-17.99-2.76-26.81-5.08.54-10.13.76-15.27.57Z"/>
        <path class="cls-1" d="M222.23,299.93c1.24.83,3.61,6.31,3.9,6.56.33.28,3.98-.02,5.01.65.8-.92-5.88-20.96-6.92-23.35-.86-1.98-4.42-7.31-4.41-2.43.01,5.38,2.69,12.82,2.42,18.57Z"/>
        <path class="cls-1" d="M219.27,308.27c1.6-1.23,2.94-2.01,5.08-1.7.78-.69-5.32-8.91-7.95-7.1-.49.34-1.23,2.72-1.05,3.34.24.79,4.56,3.28,3.91,5.46Z"/>
        <path class="cls-1" d="M346.55,408.43c.67,3.93,4.94,12.9,6.37,17.67,1.76,5.87,3.53,12.59,4.94,18.54.77,3.23.8,7.08,2.26,10.19,1.5-8.51-.22-20.69-1.13-29.71-1.8-17.66-4.35-31.96-9.05-48.95-.5,7.28-2.88,14.5-3.39,21.79-.17,2.51-.39,8.19,0,10.46Z"/>
        <path class="cls-1" d="M155.37,470.42l-.58,9.88c1.12.3,1.09-.47,1.59-.95,3.69-3.59,1.82-11.35,1.8-16.02l-2.8,7.09Z"/>
        <path class="cls-1" d="M149.7,453.97c.16,2.03,1.84,12.69,2.58,13.83.37.58.82,1.23,1.6,1.15,1.54-.27,2.34-5.16,2.53-6.55.19-1.42.03-10.47,2.05-4.18,2.73,8.47.4,14.54.8,22.36.27,5.11,3.32.61,4.44-1.83,5.11-11.14,2.86-25.99.12-37.51-4.57,1-9.47,1.73-14.14,1.7.19,3.61-.27,7.45,0,11.03Z"/>
        <path class="cls-1" d="M63.09,264.89c-3.55-8.11-5.84-16.25-3.35-25.09-11.1,5.4-15.24,16.89-19.23,27.73,3.54,2.12,8.43,6.59,11.31,9.62,2.56-4.96,7.18-8.57,11.27-12.25Z"/>
        <path class="cls-1" d="M74.76,286.74c-.8-2.42-2.5-1.29-4.29-1.94-6.97-2.5-10.14-9.75-7.9-16.71v-.57c-2.59,3.34-7.76,6.28-9.62,10.75.37.48.74.97,1.04,1.51l-19.14,30.18,39.6-4.52c-.01-.32.61-1.47.59-2.51-.06-3.76.66-13.34-.28-16.2Z"/>
        <path class="cls-1" d="M213.84,308.89c.71.87,6.97,10.85,6.56,4.8-.15-2.2-4.77-10.76-7.59-9.94-2.99,3.48-.49,3.3,1.02,5.14Z"/>
        <path class="cls-1" d="M76.14,283.37c.83,6.45.62,13.02.6,19.54,0,1.18-.63,2.33-.57,3.34.05.89,1.94,4.52,2.56,5.37,4.67,6.4,19.85,9.26,25.99,4,4.03-3.44-.07-6.89.84-11.33-3.39.17-6.82-.55-10.05-1.55-.51-.16-7.26-2.26-5.79-3.54,4.07.69,7.49,2.77,11.75,3.24,30.61,3.38,29.58-39.39,18.79-57.56-.11-.07-.37.04-.57,0-10.1,4.64-23.16,5.21-33.38.57.71,6.68-1.36,11.88-5.19,17.16-.76,1.05-3.66,3.54-3.78,4.14-.18.88,1.59,2.53,1.05,3.03-1.26,1.14-3.65-3.73-5.09-4.52-1.93-1.07-5.28-1.47-7.35-.57-.16.1-.36.39-.57.57-4.8,8.56.05,19.56,10.74,18.11ZM116.05,280c3.94-3.15-2.56-11.83-3.13-15.58-.19-1.21,1.16-1.13,1.65-.8.63.42,4.75,12.83,4.57,14.33-.41,3.26-4.87,5.41-7.91,4.86.09-2.39,3.24-1.54,4.82-2.81Z"/>
        <path class="cls-1" d="M296.77,522.74c-7.55-.49-15.1-.99-22.63-1.7.06,2.54-.09,5.1,0,7.64.81,22.02,3.51,44.17,3.98,66.19.06,3.01.47,9.33-.03,11.9-.15.79-.36.91-.82,1.44-3.05,3.47-10.57,6.48-13.88,10.17,6.52-.8,11.47-.55,18.11-2.54,5.29-1.59,9.55-4.73,14.14-6.51l7.92-86.01c-2.48-.99-4.25-.4-6.79-.57Z"/>
        <path class="cls-1" d="M335.8,522.17c-1.37.12-3.72,1.02-5.38,1.13-4.4.27-8.88-.18-13.29,0,6.75,27.6,14.07,55.07,19.82,82.93-.09,3.33-10.98,12.1-13.6,14.97,1.93-.11,3.99-.04,5.94,0,3.25.06,4.19-.25,7.76-1.3,7.12-2.09,11.71-5.28,17.98-8.32l-7.35-89.97c-3.76.82-8.14.25-11.88.57Z"/>
        <path class="cls-2" d="M258.85,495.87c2.29-23.03,6.1-47.06,12.15-68.8.58-2.09,1.3-3.88,2.06-5.89.43-1.14.96-1.33-.61-2-2.32,4.49-4.61,15.68-5.84,21.04-4.34,18.94-6.92,38.28-8.87,57.62,1.79.31,1.01-.9,1.11-1.97Z"/>
        <path class="cls-2" d="M269.94,519.33c-4.44-.76-8.88-1.64-13.34-2.25-.56-.53,2.62-13.24.57-15.28-.48,5.24-1.28,10.51-1.06,15.77.43.67,14.32,3.04,15.77,2.91.32-1.78-.88-.96-1.94-1.14Z"/>
        <path class="cls-3" d="M163.83,441.25c.32-.07.98-.84,1.7-.57-.7-20.87-7.79-48.4-11.23-69.97-3.05-19.1-2.44-44.57-21.06-55.9-7.31-4.45-17.53-7.03-25.98-8.25.07,3.55,2.67,6.11-.33,9.58-7.54,8.73-32.06,2.46-32.48-10.71l-39.6,4.52,19.14-30.18c-.3-.53-.67-1.03-1.04-1.51-.17-.22-.8-.78-1.13-1.13-2.88-3.03-7.77-7.5-11.31-9.62-.27-.16-.9-.05-1.13-.57-.06.08-1.12.1-1.7.82C27.75,280.05-.03,307.61,0,323.17c.02,9.29,7.3,12.92,14.67,16.32,10.83,4.99,23.2,8.31,34.86,10.68l-2.83,76.6,3.43.89,23.76,3.4c.93.07,1.89-.06,2.83,0,7.67-.37,15.27.72,22.94.59,10.9-.18,27.28-1.27,37.59-4.55,1.04-.33,2.04-1.24,3.34-1.18.51-1.24-.34-2.38-.51-3.34-1.51-8.57-.71-16.69-1.11-25.2-.75-15.86-2.15-31.78-3.34-47.58-.26-3.4.97-3.66,1.63-.5,2.93,14.23,2.2,32.85,2.8,47.56.32,7.96-.06,18.19,1.15,25.72.84,5.18,3.21,12.87,5.06,17.86.39,1.04,1.58,1.88,1.73,2.52.57,0,1.13,0,1.7,0,4.68.03,9.57-.7,14.14-1.7Z"/>
        <path class="cls-4" d="M137.25,349.29c-.65-3.17-1.88-2.9-1.63.5,1.19,15.8,2.59,31.73,3.34,47.58.4,8.51-.41,16.64,1.11,25.2h1.13c-1.22-7.54-.83-17.76-1.15-25.72-.6-14.71.13-33.33-2.8-47.56Z"/>
        <path class="cls-2" d="M76.71,431.07c1.73.11,4.48,1.08,6.48,1.16,17.73.69,35.49-.43,52.92-3.42-.55,2.34.56,5.03.56,7.08.04,20.59-.14,41.3-.03,62.27.07,14.41-.04,29.24.03,43.26,1.06-1.14.51-3.48.57-5.09v-2.26c0-1.34,0-2.63,0-3.96,0-1.41-.43-3.6.57-4.53.05-6.89.48-13.83.59-20.63.41-25.99-.4-51.9-1.15-77.83-10.31,3.28-26.69,4.38-37.59,4.55-7.67.12-15.27-.96-22.94-.59Z"/>
        <path class="cls-2" d="M94.25,455.96c1.05,2.38-1.1,3.56-1.15,3.78-.23,1.12.49,2.25.4,3.22-.62,6.74-2.57,12.77-2.09,19.59.77-.79.9-2.13,1.06-3.19.97-6.56,1-14.23,2.12-20.46.15-.86.33-2.15,1.34-2.38,1.05,4.16.35,8.48.58,12.73,1.9,34.92,3.77,69.78,5.11,104.67.37,9.7.11,19.53.83,29.18.17.37.63.39.84.56l-5.62-146.78-3.43-.92Z"/>
        <path class="cls-2" d="M45.92,605.35c-.86-.17-5.09-.97-5.31-1.23-1.46-1.64.2-7.23.41-9.3,1.25-12.7,1.4-26.84,1.75-39.83-.61,2.42-.94,5.7-1.13,8.21-.51,7.14-.65,14.35-1.14,21.49-.46,6.66-1.48,13.38-1.63,20.04,1.08.32,2.24.38,3.33.63,1.77.39,3.89.92,5.66,1.13.33-1.81-.9-.94-1.94-1.14Z"/>
        <path class="cls-2" d="M43.9,549.08c.58-16.15,1.53-33.01,2.26-48.97l-2.26,28.02c.16,7.66-1.19,15.27-1.14,22.91,1.71.32,1.09-.86,1.13-1.95Z"/>
        <path class="cls-2" d="M47.84,479.99c.04-.74.59-1.48.59-1.68v-9.05c0-2.93.78-7.66,1.06-10.84.1-1.1.64-2.19-1.06-1.9-.68,10.72-1.32,21.52-1.7,32.26,2.09-1.74.97-6.17,1.11-8.79Z"/>
        <path class="cls-2" d="M136.1,552.44c-.56,7.19-.72,11.48-.56,18.4,1.69-9.27,1.17-18.88,1.13-28.29-1.22,2.95-.32,6.7-.58,9.89Z"/>
        <path class="cls-2" d="M51.83,428.8c7.04,1.32,14.2,2.09,21.34,2.64.42.03.68-.38.72-.38l-23.76-3.4c-.06,2.07.09,4.16,0,6.22,2.13.38,1.34-4.66,1.7-5.09Z"/>
        <path class="cls-2" d="M79.54,557.82c1.1-.55.74-1.42.91-2.2,2.61-12.13,4.75-25.31,5.88-37.41-.43,2.23-1.79,4.54-2.12,6.66-1.65,10.76-3.26,21.97-4.67,32.96Z"/>
        <path class="cls-2" d="M90.03,488.8c-.19,5.56-1.62,11.39-2,17.53.89-1.55,1.34-4.23,1.63-6.01.7-4.32,1.4-9,1.2-13.23-2-.27-.79.83-.82,1.71Z"/>
        <path class="cls-2" d="M88.41,507.81c.02-.39-.39-.78-.39-.92-1.54,3.32-1.39,7.25-1.7,10.75,1.34-2.66,1.93-6.88,2.08-9.83Z"/>
        <path class="cls-2" d="M50.13,447.78c.08-2.06-.01-4.13.05-6.2.03-.91,1.18-1.95-.62-.9-.17,3.03-.38,6.03-.57,9.05,1.71.32,1.09-.87,1.13-1.96Z"/>
        <path class="cls-2" d="M90.86,486.52c1.52-1.23.65-2.32.57-3.4-2.03-.46-.71,1.78-.57,3.4Z"/>
        <path class="cls-4" d="M137.24,530.09c1.01-.94.56-3.11.57-4.53-1,.93-.57,3.12-.57,4.53Z"/>
        <path class="cls-4" d="M137.24,534.06v2.26c.04-.99,0-1.48,0-2.26Z"/>
        <path class="cls-4" d="M60.68,240.56c-1.36,8.47-1.11,12.54,1.61,20.73.36,1.09,1.7,2.6,1.77,3.13.14,1.01-1.08,1.25-1.47,1.85-.22.34.08,1.12-.03,1.26v.57c1.31-.3,1.24-2.14,1.83-2.72.28-.27.91-.03,1-.11.2-.18.41-.47.57-.57,2.47-1.56,3.32-2.49,6.44-1.06.49.22,1.62.96.92,1.62,1.43.79,3.83,5.67,5.09,4.52.54-.49-1.22-2.14-1.05-3.03.12-.61,3.02-3.1,3.78-4.14,3.83-5.28,5.9-10.48,5.19-17.16l12.17,2.26c4.9.26,9.74-.39,14.53-1.29,1.82-.34,5.02-1.91,6.41-2.03.34-.03.24.5.27.51.2.04.45-.07.57,0,1.49.89,2.94,3.89,3.83,5.51.24.43-.09,1.04.91.66,4.22-1.59,7.47-7.71,7.71-12.09.02-.31-.2-3.93-.27-4.3-1.18-6.56-6.13-4.35-7.42-6.16-.38-.54-.68-6.02-1.97-8.07-.14-.23-3.8-3.29-4.08-3.45-7.09-3.83-19.04-.05-26.31,2.28-3.31,1.06-6.48,2.48-9.75,3.55-.43.33-.73.78-1.13,1.13-1.94,6.26-5.49,3.21-9.77,4.09-1.64.34-5.14,2.73-6.63,3.83-.69.9-5.06,6.17-5.11,6.6-.06.62.5,1.44.39,2.09Z"/>
        <path class="cls-2" d="M119.71,244.89s.08-.54-.27-.51c-1.38.13-4.59,1.69-6.41,2.03-4.8.9-9.64,1.56-14.53,1.29l-12.17-2.26c10.22,4.64,23.28,4.07,33.38-.57Z"/>
        <path class="cls-2" d="M73.32,265.26c.7-.67-.43-1.4-.92-1.62-3.12-1.43-3.97-.5-6.44,1.06,2.08-.9,5.42-.5,7.35.57Z"/>
        <path class="cls-2" d="M165.53,440.69c-.72-.27-1.38.5-1.7.57,2.73,11.51,4.98,26.36-.12,37.51-1.12,2.44-4.18,6.94-4.44,1.83-.41-7.82,1.93-13.89-.8-22.36-2.03-6.29-1.86,2.76-2.05,4.18-.19,1.39-1,6.28-2.53,6.55-.78.08-1.23-.58-1.6-1.15-.74-1.14-2.42-11.8-2.58-13.83-.28-3.58.18-7.42,0-11.03-.57,0-1.13,0-1.7,0,.61,2.56-.23,7.92,0,11.03.22,2.77,2.02,14.15,3.44,15.81.81.94,2.11.75,2.25,1.24,1.05,3.7-4.12,14.04,3.92,9.84-.63,4.4,3.6,4.66,5.91,1.66,4.5-5.83,5.35-19.12,4.84-26.27-.36-5.08-2.66-10.91-2.82-15.57ZM156.37,479.34c-.49.48-.47,1.25-1.59.95l.58-9.88,2.8-7.09c.02,4.66,1.9,12.43-1.8,16.02Z"/>
        <path class="cls-2" d="M81.8,223.95c-.68.59-2.6,3.02-2.79,3.11-.43.21-5.79-.54-9.29.94-3.18,1.34-2.66,1.68-4.33,3.88,1.49-1.1,5-3.49,6.63-3.83,4.28-.88,7.83,2.17,9.77-4.09Z"/>
        <path class="cls-2" d="M40.51,267.53c3.99-10.83,8.13-22.33,19.23-27.73-2.49,8.84-.2,16.99,3.35,25.09-4.09,3.69-8.71,7.29-11.27,12.25.33.35.96.91,1.13,1.13,1.85-4.47,7.02-7.41,9.62-10.75.11-.14-.19-.93.03-1.26.39-.6,1.61-.83,1.47-1.85-.07-.53-1.41-2.03-1.77-3.13-2.73-8.19-2.98-12.26-1.61-20.73.1-.65-.45-1.46-.39-2.09.04-.43,4.42-5.7,5.11-6.6-3.25,2.41-3.01,4.07-4.78,5.69-1.22,1.11-4.91,2.46-6.8,3.95-4.5,3.55-8.18,9.17-10.58,14.32-.9,1.93-3.51,10.66-3.86,11.13.23.51.86.4,1.13.57Z"/>
        <path class="cls-2" d="M118.99,217c.28.15,3.94,3.22,4.08,3.45,1.28,2.05,1.59,7.53,1.97,8.07,1.29,1.81,6.24-.4,7.42,6.16.07.36.28,3.99.27,4.3-.24,4.37-3.49,10.5-7.71,12.09-1,.38-.68-.23-.91-.66-.89-1.62-2.34-4.62-3.83-5.51,10.79,18.17,11.81,60.94-18.79,57.56-4.26-.47-7.68-2.54-11.75-3.24-1.46,1.28,5.28,3.38,5.79,3.54,3.23,1,6.66,1.72,10.05,1.55-.91,4.44,3.18,7.88-.84,11.33-6.14,5.25-21.33,2.4-25.99-4-.62-.85-2.51-4.48-2.56-5.37-.06-1.01.57-2.16.57-3.34.02-6.52.23-13.09-.6-19.54-10.69,1.45-15.54-9.55-10.74-18.11-.09.08-.72-.16-1,.11-.6.58-.52,2.42-1.83,2.72-2.23,6.96.94,14.21,7.9,16.71,1.79.64,3.49-.49,4.29,1.94.94,2.86.21,12.44.28,16.2.02,1.04-.6,2.19-.59,2.51.42,13.17,24.95,19.44,32.48,10.71,2.99-3.47.4-6.03.33-9.58-.02-.72-.13-1.47.08-2.18,25.13-4.1,23.8-34.43,18.03-53.27,7.43-2.37,11.56-15.26,5.4-20.97-1.38-1.28-4.59-2.11-4.74-2.33-.18-.28-.52-3.76-.95-4.98-1.46-4.07-5.79-7.22-9.96-8.14-7.33-1.62-26.2,3.59-32.17,8.13,3.26-1.07,6.44-2.49,9.75-3.55,7.27-2.32,19.22-6.1,26.31-2.28Z"/>
        <path class="cls-2" d="M119.13,277.94c.19-1.5-3.94-13.91-4.57-14.33-.49-.33-1.84-.41-1.65.8.57,3.75,7.08,12.44,3.13,15.58-1.58,1.26-4.73.42-4.82,2.81,3.03.55,7.5-1.59,7.91-4.86Z"/>
        <path class="cls-4" d="M295.54,230.34c-8.01,2.11-17.43,7.27-20,15.68-1.03,3.36-1.79,8-.58,11.35.35.98,2.32,4.13,3.18,3.02.84-1.08,1.65-3.82,2.82-5.44.69-.96,2.46-2.61,3.37-3.55.25-.26,1.46-1.98,1.69-.85.8-.71,7.58-5.43,7.91-5.09-.3,1.73,4.08,9.49,5.1,9.62.04,0,.3-.51.55-.57.09.35-.1.92.01,1.14.54,1.11,1.23,1.15,1.7,1.7,1.08,1.03,2.65,1.89,3.7,2.82.46.41.25.6-.3.57,3.19,2.83,6.5,5.21,10.18,7.36,1.75-1.25,3.72,2.1,5.41,2.27,2.41.24,3.75-3.3,7.95-1.79,1.15.41,3.91,3.65,4.15,4.93.79,4.25-1.16,10.89-5.65,12.4-1.48.5-5.4.14-5.6.34-1.07,1.05-.39,9.78-.19,11.74.09.91.65,2.35-.41,2.94.68,2.97,5.35,11.1,7.92,12.45,2.2,1.15,10.12,2.62,13.45,3.81,2.84,1.01,5.9,2.25,8.61,3.55l4.51,1.48c1.93.8,2.53-1.1,3.11-2.62,3.15-8.36-5.82-12.02-4.66-18.24.34-1.81,2.03-3.85,2.53-5.4,1.35-4.22.21-7.45-1.75-11.21l-5.43-5.88c-.34-.28-.57-.71-1.13-1.13l-.28.56c-.66-.3-1.03-1.39-1.42-1.69-.17-.14-.38-.38-.57-.57-.14-.13-1.01-.1-1.45-.51-1.19-1.11-2.17-14.29-2.9-17.49-1.19-5.26-3.26-8.83-5.27-13.68-.19-.18-.36-.39-.57-.57-.15-.13-1.45.17-1.68-1.42l.55-.27c-2.34-2.72-3.84-4.17-6.79-6.22-.11.83-2.11-.56-2.38-.73-4.64-2.9-8.88-3.77-14.02-5.49-.19,0-.38,0-.57,0-4.02-.08-8.69-.61-12.45-.57-.19,0-.38,0-.57,0,.34,1.64-.81,1.03-1.79,1.29Z"/>
        <path class="cls-2" d="M336.96,606.23c-5.75-27.85-13.08-55.32-19.82-82.93,4.4-.19,8.89.26,13.29,0,1.66-.1,4.01-1.01,5.38-1.13-2.68-.06-5.61-.67-8.22-.6-3.4.1-8.15,1.38-11.29,1.44-2.1.04-9.44-1.81-11.04-.83l.57,1.13,9.56.06c6.68,27.43,13.93,54.73,19.83,82.36,0,3.41-11.75,12.33-14.12,15.48.67-.11,1.53.04,2.26,0,2.62-2.86,13.51-11.63,13.6-14.97Z"/>
        <path class="cls-2" d="M277.27,608.2c.47-.53.67-.65.82-1.44.5-2.57.1-8.89.03-11.9-.47-22.02-3.17-44.17-3.98-66.19-.09-2.54.05-5.1,0-7.64,7.53.71,15.08,1.21,22.63,1.7.32-1.71-.86-1.09-1.95-1.13-7.14-.26-16.36-2.49-22.37-1.13-.43,3.74.35,7.47.56,11.04,1.45,24.74,2.9,49.34,3.39,74.11-.61,3.24-14.61,10.04-16.96,13.31,1.02-.25,2.82-.43,3.96-.57,3.31-3.69,10.83-6.7,13.88-10.17Z"/>
        <path class="cls-2" d="M365.83,509.95c.09,2.07,1.72,5.34.26,7.72-.5.82-1.96.02-3.13.2-5.24.83-10.53,2.7-15.28,3.73l7.35,89.97c.08-.04,1.19.62,1.7,0-1.8-26.4-3.66-53.14-6.23-79.5-.33-3.43-.68-6.86-1.73-10.12l19.03-3.7c.56-.77-.86-16.66-2.02-18.71.15,3.42-.09,7.18.04,10.42Z"/>
        <path class="cls-2" d="M304.71,523.66c-.14-.69-.87-.24-1.16-.35l-7.92,86.01c.26-.1.79.07,1.13,0,2.78-25.3,8.62-56.56,7.92-81.49-.04-1.39.04-2.78.02-4.17Z"/>
        <path class="cls-2" d="M276.98,294.13l2.26,2.83c-3.25-7.47-3.41-16.47-2.76-24.54.65-8.02,3.43-16.46,9.54-21.86-.24-1.13-1.44.59-1.69.85-.91.94-2.68,2.59-3.37,3.55-1.16,1.62-1.98,4.36-2.82,5.44-.86,1.11-2.83-2.05-3.18-3.02-1.2-3.36-.45-7.99.58-11.35,2.57-8.41,11.99-13.57,20-15.68.98-.26,2.13.35,1.79-1.29-11.22.22-26.64,14.65-24.07,26.63.49,2.3,3.58,5.48,3.59,6.35.01,2.26-1.94,7.61-2.16,10.85-.27,3.94-.32,10.27.03,14.16.18,2.02,1.67,5.85,1.53,7.29-.13,1.36-2.19,3.83-2.53,5.87-.92,5.45.04,11.2,4.39,14.86-1.82-3.11-4.06-6.65-4-11.03.05-3.8,2.1-6.39,2.88-9.9Z"/>
        <path class="cls-2" d="M343.97,275.5c.44.41,1.31.38,1.45.51-2.5-3.51-1.63-8.42-2.34-12.66-.98-5.92-2.85-14.79-7.28-19.03,2.01,4.86,4.08,8.43,5.27,13.68.73,3.21,1.71,16.38,2.9,17.49Z"/>
        <path class="cls-2" d="M356,295.93c-.5,1.55-2.19,3.59-2.53,5.4-1.16,6.22,7.81,9.88,4.66,18.24-.57,1.52-1.17,3.43-3.11,2.62l-4.51-1.48c2.11,1.01,4.32,2.02,6.22,3.4,2.13-3.25,3.31-5.81,2.78-9.85-.57-4.33-5.53-7.14-5.41-11.28.08-2.72,2.59-5.65,3.06-8.14.75-3.96-.29-7.84-2.7-11.02-1.41-1.87-4.1-3.66-5.65-4.97l5.43,5.88c1.96,3.76,3.11,6.99,1.75,11.21Z"/>
        <path class="cls-2" d="M297.9,229.05c3.75-.04,8.42.49,12.45.57-3.48-2.09-8.61-1.1-12.45-.57Z"/>
        <path class="cls-2" d="M327.32,235.84c-4.88-3.4-10.41-6.19-16.41-6.22,5.14,1.72,9.38,2.6,14.02,5.49.27.17,2.27,1.56,2.38.73Z"/>
        <path class="cls-2" d="M335.24,243.76c.16-1.13-.74-1.25-1.13-1.7l-.55.27c.23,1.59,1.53,1.29,1.68,1.42Z"/>
        <path class="cls-2" d="M347.4,278.27l.28-.56c-.54-.41-1.14-.74-1.7-1.13.38.3.75,1.39,1.42,1.69Z"/>
        <path class="cls-2" d="M365.78,498.97c-.18-4.33-.34-8.76-1.15-13.28-.18-.99-.07-1.98-1.12-2.56.25,4.62,1.16,9.27,1.33,14.02.03.98-.99,2.1.94,1.82Z"/>
        <path class="cls-2" d="M346.55,408.43l-13.01,1.7c.09,0,.49.55.89.52,4.06-.21,8.18-.41,12.11-1.66,3.36,11.32,7.05,22.46,9.92,33.97.24.95-.06,2,1.4,1.68-1.41-5.96-3.18-12.67-4.94-18.54-1.43-4.78-5.71-13.75-6.37-17.67Z"/>
        <path class="cls-5" d="M269.62,357.23c.14-1.89.63-7.97,2.82-8.21-4.01,20.52,5.57,40.36,4.04,61.03,12.02,1.53,24.8,2.23,37,1.8,6.46-.23,13.05-1.33,19.49-1.72.19-.01.38.01.57,0l13.01-1.7c-.39-2.27-.17-7.95,0-10.46.5-7.3,2.88-14.51,3.39-21.79-.92-3.33-5.33-16.86-5.11-18.95.08-.79.37-1.63,1.14-.85,3.81,12.69,8.18,25.31,10.58,38.37,3.29,17.93,4.06,36.79,6.4,54.43,5.15.2,10.2-.02,15.27-.57.55-.06,1.14.04,1.7,0,.05-.22,1.04-.36,1.17-1.4,2.14-16.45-.71-45.81-2.93-62.76-2.1-16.11-7.77-50.42-21.44-60.33-1.9-1.38-4.11-2.39-6.22-3.4-2.72-1.3-5.77-2.53-8.61-3.55-3.33-1.19-11.24-2.65-13.45-3.81-4.02,7.86-10.31,10.53-18.23,13.06-.49.16-.26,1-1.25,1.13-.92.12-3.63.14-4.45-.06-.41-.1-.34-.95-.82-1.08-.87-.24-1.91-.03-2.87-.42-5.19-2.12-7.8-5.06-8.02-10.93-.61.17-1.19.43-1.7.57-3.25.84-7.72,1.55-10.75,2.83-18.37,7.76-23.97,30.06-30.55,46.96l-13.01-31.69c-.67-.11-1.14.3-1.69.57-.57.28-1.14.92-1.7,1.13-5.34,2.02-9.95,2.31-15.27,3.4-.11.02-.76.42-1.13.57-.24.1-.78-.1-1.12,0-.42.55,2.06,11.91,2.43,13.69,2.65,12.65,9,42.23,22.06,47.53,13.61,5.52,24.26-11.57,32.07-19.91-1.14-8.22-3.49-14.64-2.82-23.47Z"/>
        <path class="cls-2" d="M211.25,323.93c-1.77-3.36-4.51-10.73-2.66-14.17,2.31-4.29,6.39,3.96,7.86,5.57,4.48,4.9,5.2-.83,5.96-.87.25-.01,3.8,1.5,3.96,1.71.89,1.12-5.15,7.19-1.73,9.64,1.58,0,.63-2.82.98-4.1.49-1.86,3.56-3.58,2.63-6.28-.33-.97-9.61-3.08-7.05-6.63.81-1.12,9.53-.56,11.2.19,7,3.15-2.37,20.47,1,26.44.55-.21,1.12-.86,1.7-1.13-2.7-7.51,3.82-16.14,1.12-23.47-.82-2.21-3.12-2.85-3.36-3.56-2.7-7.67-3.91-18.75-7.84-25.98-1.38-2.54-4.82-5.82-6.6-1.87-.94,2.09,2.78,18.09,1.97,19.22-1.77-1.03-3.35-1.88-5.14-.33-1.61,1.4-.85,3.41-1.12,3.69-.16.17-1.74-.22-2.83.84-1.06,1.04-.78,2.71-1.4,3.69-1.11,1.74-3.47,1.28-3.67,5.43-.55,11.06,9.06,17.3,10.77,27.42.37-.15,1.02-.54,1.13-.57.44-6.04-4.36-10.1-6.88-14.9ZM219.81,281.36c-.01-4.88,3.55.45,4.41,2.43,1.04,2.38,7.72,22.43,6.92,23.35-1.03-.67-4.68-.37-5.01-.65-.29-.25-2.66-5.73-3.9-6.56.26-5.75-2.41-13.19-2.42-18.57ZM216.41,299.47c2.63-1.81,8.73,6.42,7.95,7.1-2.14-.31-3.48.47-5.08,1.7.65-2.18-3.67-4.67-3.91-5.46-.19-.62.56-3,1.05-3.34ZM212.81,303.76c2.82-.82,7.44,7.74,7.59,9.94.41,6.05-5.85-3.93-6.56-4.8-1.51-1.84-4.01-1.65-1.02-5.14Z"/>
        <path class="cls-4" d="M295.95,313.4c.52-.76.41-4.94.81-6.26-3.77.89-9.15-.92-12.16-3.41-.68-.56-1.01-1.33-1.41-1.68-.29-.25-.8-.8-1.13-1.13-.67-.68-2.73-1.08-2.83-3.1l.57-.29c-.16-.21-.38-.38-.57-.57l-2.26-2.83c-.77,3.51-2.83,6.11-2.88,9.9-.06,4.38,2.18,7.93,4,11.03.67,1.15,1.39,2.39,2.26,3.4,3.03-1.28,7.5-1.99,10.75-2.83-.22-2.18,3.98-.95,4.84-2.23Z"/>
        <path class="cls-2" d="M275.83,411.25c.5-.56,12.94,1.09,14.97,1.16,12.66.46,27.7.48,40.19-1.18,1.05-.14,2.3.72,1.98-1.11-6.44.39-13.03,1.49-19.49,1.72-12.2.43-24.98-.27-37-1.8,1.53-20.68-8.05-40.51-4.04-61.03-2.18.24-2.67,6.32-2.82,8.21-.67,8.84,1.68,15.25,2.82,23.47,1.22,8.85,3.01,20.96,2.74,29.73-.08,2.42-2.5,5.47-2.17,8.19.39-.81,2.73-4.56,2.82-4.92.18-.7-.14-2.27,0-2.44Z"/>
        <path class="cls-2" d="M324.45,269.47c10.04-2.44,9.28,14.49.76,16.04-1.73.31-3.51.07-5.25.13.24,5.08-.58,10.31.57,15.28,1.06-.59.5-2.03.41-2.94-.2-1.96-.89-10.69.19-11.74.21-.2,4.13.16,5.6-.34,4.49-1.51,6.44-8.15,5.65-12.4-.24-1.28-3-4.52-4.15-4.93-4.2-1.5-5.54,2.03-7.95,1.79-1.69-.17-3.66-3.52-5.41-2.27,1.24.72,4.94,3.21,6.05,3.31.71.06,2.07-1.58,3.53-1.94Z"/>
        <path class="cls-2" d="M304.69,260.74c.56.03.76-.16.3-.57-1.05-.94-2.62-1.8-3.7-2.82,1.24,1.44,1.99,2.15,3.39,3.4Z"/>
        <path class="cls-2" d="M299.59,254.5c-.26.06-.51.58-.55.57l.57.57c-.11-.22.08-.79-.01-1.14Z"/>
        <path class="cls-2" d="M382.78,464.15c-.22-3.1-3.19-14.04-2.85-15.54-.56.04-1.14-.06-1.7,0,1.78,8.82,3.74,17.71,2.76,26.81-.22,2.04-.72,5.84-3.32,6.01.55-3.54,1.59-8.3.64-11.7-.27-.96.42-1.58-1.2-1.31-.21,3.87.05,15.49-2.53,18.12-.41.42-2.13,1.46-2.56,1.11l2.26-8.77v-9.9h-1.7v11.03c0,.78-1.98,9.12-3.96,7.07-.22-3.21-.69-25.08-1.7-26.03-.06-.06-1.62-.05-1.68,0-.49.4-1.5,9.85-3.39,12.18-1.07,1.32-2.29.75-2.73-.7-.36-1.18.78-11.49,1.15-13.33.57-2.85,3.07-7.2,2.69-10.04-2.34-17.64-3.11-36.5-6.4-54.43-2.4-13.06-6.77-25.69-10.58-38.37-.78-.78-1.06.06-1.14.85-.22,2.09,4.19,15.62,5.11,18.95,4.7,17,7.25,31.29,9.05,48.95.92,9.02,2.64,21.19,1.13,29.71-1.01,5.75-2.26,10.48-1.69,16.15.07.65-.49,1.34-.49,1.7,0,.27.67.24.81.48.28.52.2,1.23.59,1.53.73.55,2.37-.19,2.47-.06.19.23.42,5.02.53,5.98.13,1.09-.55,2.28,1.17,1.95-.09-2.05-.73-6.08-.56-7.58.26-2.19,3.01-4.91,2.26-7.69,1.03.21,1.05,1.11,1.15,1.96.58,5.16-.18,11.72.52,17.02.1.79.14,1.47.82,2.01.7.56,6.2.64,7.12.22,2.05-.92,2.41-4.89,2.95-5.26.4-.27,1.45-.07,2.12-.4,3.4-1.71,3.13-15.14,2.88-18.69Z"/>
        <path class="cls-2" d="M279.23,297.81c.1,2.02,2.16,2.42,2.83,3.1-.48-1.33-1.41-2.31-2.26-3.4l-.57.29Z"/>
        <path class="cls-2" d="M297.36,307.73c.19-.19,3.98-.8,5.22-1.29,1.38-.55,2.89-1.3,4.19-2.03.7-.39,6.94-4.18,5.84-5.19-3.58.91-6.23,3.76-9.79,5.19-6.94,2.79-13.67,2.26-19.62-2.37.4.35.74,1.13,1.41,1.68,3.01,2.48,8.39,4.3,12.16,3.41-.4,1.32-.29,5.5-.81,6.26-.86,1.28-5.06.05-4.84,2.23.51-.13,1.09-.4,1.7-.57.58-.16,1.42.06,2.27-.25,3.62-1.29,1.7-6.5,2.27-7.09Z"/>
        <path class="cls-2" d="M282.92,282.79c-1.7-3.77,5.18-13.09,4.23-14.13-.81-.89-2.89,2.93-3.13,3.37-1.57,2.88-4.62,9.6-2.22,12.45,1.67,1.99,7.57,2.83,5.92.59-.22-.3-3.9-.29-4.8-2.28Z"/>
        <path class="cls-2" d="M215.72,318.94c-1.81-.47-1.95-3.92-4.37-3.31-.5.48,2.24,4.55,3.34,4.86,1.71.48,4.43.26,4.57-2.03-1.21-.14-2.31.81-3.55.48Z"/>
      </g>
      <path class="cls-5" d="M205.37,190.1c.97,1.55,1.45,3.09,1.45,4.65,0,2.9-1.55,5.7-4.64,8.41-3.1,2.71-6.09,4.07-9,4.07-6.38,0-11.22-4.07-14.51-12.19-2.13-5.22-1.64-9.1,1.45-11.61,2.32-1.74,6.86-1.94,13.64-.58,5.61,1.16,9.48,3.58,11.61,7.25ZM263.7,25.26c1.35,5.42,2.03,10.74,2.03,15.96,0,14.71-5.51,30.96-16.54,48.76-9.87,14.9-19.64,29.8-29.31,44.69-2.32,4.84-4.64,9.68-6.96,14.51-3.1,5.42-7.06,8.41-11.9,9-9.87,1.16-14.61-.48-14.22-4.93,1.35-14.9,10.3-34.83,26.84-59.78,16.54-24.96,25.78-44.59,27.72-58.91.39-2.9-.19-5.56-1.74-7.98-1.55-2.42-3.77-3.63-6.67-3.63-2.52,0-5.71,1.93-9.58,5.8-2.71,3.68-7.06,9.19-13.06,16.54-1.36,1.74-3.1,7.16-5.22,16.25-1.36,6.19-5.13,9-11.32,8.42-8.12-.77-12.67-4.65-13.64-11.61-.19-1.54-.29-3.09-.29-4.64,0-9.09,3.67-17.99,11.03-26.7,4.06-4.83,11.32-11.41,21.77-19.74C219.01,2.24,225.2-.18,231.2.01c7.55.39,14.41,2.81,20.6,7.26,6.19,4.46,10.16,10.45,11.9,17.99Z"/>
      <path class="cls-3" d="M125.72,188.82c.43.69.65,1.39.65,2.08,0,1.3-.69,2.56-2.08,3.77-1.39,1.21-2.73,1.82-4.03,1.82-2.86,0-5.03-1.82-6.5-5.46-.96-2.34-.74-4.08.65-5.2,1.04-.78,3.08-.87,6.11-.26,2.51.52,4.25,1.6,5.2,3.25ZM151.87,114.93c.61,2.43.91,4.81.91,7.15,0,6.59-2.47,13.88-7.42,21.85-4.42,6.68-8.8,13.36-13.14,20.03-1.04,2.17-2.08,4.34-3.12,6.5-1.39,2.43-3.17,3.77-5.33,4.03-4.42.52-6.55-.22-6.37-2.21.61-6.68,4.62-15.61,12.03-26.8,7.42-11.19,11.56-19.99,12.42-26.41.17-1.3-.09-2.49-.78-3.58-.69-1.08-1.69-1.63-2.99-1.63-1.13,0-2.56.87-4.29,2.6-1.22,1.65-3.17,4.12-5.85,7.42-.61.78-1.39,3.21-2.34,7.28-.61,2.78-2.3,4.03-5.07,3.77-3.64-.35-5.68-2.08-6.11-5.2-.09-.69-.13-1.38-.13-2.08,0-4.07,1.65-8.07,4.94-11.97,1.82-2.17,5.07-5.12,9.76-8.85,2.86-2.25,5.64-3.34,8.33-3.25,3.38.18,6.46,1.26,9.24,3.25,2.77,2,4.55,4.68,5.33,8.07Z"/>
      <path class="cls-3" d="M288.38,188.82c.43.69.65,1.39.65,2.08,0,1.3-.69,2.56-2.08,3.77-1.39,1.21-2.73,1.82-4.03,1.82-2.86,0-5.03-1.82-6.5-5.46-.96-2.34-.74-4.08.65-5.2,1.04-.78,3.08-.87,6.11-.26,2.51.52,4.25,1.6,5.2,3.25ZM314.53,114.93c.61,2.43.91,4.81.91,7.15,0,6.59-2.47,13.88-7.42,21.85-4.42,6.68-8.8,13.36-13.14,20.03-1.04,2.17-2.08,4.34-3.12,6.5-1.39,2.43-3.17,3.77-5.33,4.03-4.42.52-6.55-.22-6.37-2.21.61-6.68,4.62-15.61,12.03-26.8,7.42-11.19,11.56-19.99,12.42-26.41.17-1.3-.09-2.49-.78-3.58-.69-1.08-1.69-1.63-2.99-1.63-1.13,0-2.56.87-4.29,2.6-1.22,1.65-3.17,4.12-5.85,7.42-.61.78-1.39,3.21-2.34,7.28-.61,2.78-2.3,4.03-5.07,3.77-3.64-.35-5.68-2.08-6.11-5.2-.09-.69-.13-1.38-.13-2.08,0-4.07,1.65-8.07,4.94-11.97,1.82-2.17,5.07-5.12,9.76-8.85,2.86-2.25,5.64-3.34,8.33-3.25,3.38.18,6.46,1.26,9.24,3.25,2.77,2,4.55,4.68,5.33,8.07Z"/>
    </g>
  </g>
</svg>