<svg id="Capa_2" data-name="Capa 2" xmlns="http://www.w3.org/2000/svg" viewBox="0 0 153.29 122.82">
  <defs>
    <style>
      .cls-1 {
        fill: #fff;
      }
    </style>
  </defs>
  <g id="Capa_1-2" data-name="Capa 1">
    <g>
      <path class="cls-1" d="M113.6,121h20.3v-15.14c-14.87.09-24.49-17.34-11.28-27.4-6.37-12.53,9.24-25.48,20.22-15.91,4.15,3.61,5.98,9.91,3.56,15,13.4,10.09,4.54,27.86-10.69,28.31v15.14h17.12c.6,0,.6,1.82,0,1.82H.45c-.6,0-.6-1.82,0-1.82h12.57V36.36c0-.31.75-1.06,1.06-1.06h38.32V.62L53.3,0h59.11s.75.47.75.47l.45,120.54ZM111.48,1.98h-57.26v7.27h57.26V1.98ZM111.48,11.07h-57.26v109.93h18.18v-23.17l.45-.45h19.39l.45.45v23.17h19.09l-.3-109.93ZM15.14,37.42v6.66h36.96v-6.66H15.14ZM14.83,45.9v75.11h37.59V45.9H14.83ZM91.2,99.2h-16.98v21.81h16.98v-21.81Z"/>
      <path class="cls-1" d="M80.56,20.76h10.32v16.37h-10.32v-16.37ZM88.76,22.88h-6.06c-.08.22.3.36.3.45v10.6c0,.15-.48.64-.3,1.06h6.06v-12.11Z"/>
      <path class="cls-1" d="M74.54,20.74v16.39h-10.34v-16.39h10.34ZM72.4,22.88h-6.06v12.11h6.06c.08-.22-.3-.36-.3-.45v-10.9c0-.09.42-.43.3-.76Z"/>
      <path class="cls-1" d="M90.88,45.9v15.29c0,.23-.74.69-1.07.75-.98.19-6.87.19-7.86,0-1.06-.2-1.3-1.01-1.39-1.94-.27-2.81-.35-10.35,0-13.06.13-.99.36-1.23,1.36-1.36.75-.1,8.95-.13,8.95.32ZM88.76,47.71h-6.06c-.08.22.3.36.3.45v10.9c0,.09-.42.43-.3.76h6.06v-12.11Z"/>
      <path class="cls-1" d="M64.6,61.57l-.22-15.37c.28-.5.68-.55,1.2-.62.96-.12,7.82-.09,8.35.16.45.22.62.73.62,1.2l-.17,14.09c-.2.25-.47.63-.76.76-.81.36-8.48.31-9.01-.22ZM72.4,47.71h-6.06v12.11h6.06c.11-.33-.3-.66-.3-.76v-10.9c0-.06.45-.34.3-.45Z"/>
      <path class="cls-1" d="M81.34,86.78c-.47-.13-.71-.89-.77-1.35-.36-2.68-.25-9.93,0-12.75.07-.81.1-1.78,1.07-1.95,2.29-.42,5.44.45,7.84-.2l1.4.66v15.14l-.45.45h-9.09ZM88.76,72.85h-6.06c-.08.22.3.36.3.45v10.9c0,.09-.38.23-.3.45h6.06v-11.81Z"/>
      <path class="cls-1" d="M64.21,70.71h10.33v16.09h-10.33v-16.09ZM72.4,72.85h-6.06v11.81h6.06v-11.81Z"/>
      <path class="cls-1" d="M96.32,20.74h9.1v16.37h-9.1v-16.37ZM98.45,22.88v12.11h4.85v-12.11h-4.85Z"/>
      <path class="cls-1" d="M96.71,61.57l-.05-15.5c.23-.46.59-.44,1.02-.49.94-.11,6.59-.1,7.14.17.45.22.62.73.62,1.2l-.16,14.4c-.28.5-.68.55-1.2.62-1.01.13-6.92.11-7.36-.39ZM103.61,47.71h-5.15v12.11h4.85v-11.66c0-.06.45-.34.3-.45Z"/>
      <path class="cls-1" d="M46.65,54.38v13.93h-8.8v-13.93h8.8ZM44.83,56.5h-4.85v9.69h4.54v-9.24c0-.06.45-.34.3-.45Z"/>
      <path class="cls-1" d="M46.65,88.45c-.03.1-.47.54-.61.6-.74.35-7.28.3-7.8-.22-.34-.47-.34-1.03-.39-1.58-.12-1.37-.14-10.75.16-11.37.18-.37.54-.52.92-.6.88-.17,5.77-.17,6.65,0,.33.06,1.07.52,1.07.75v12.42ZM44.53,77.39h-4.54v9.69h4.54v-9.69Z"/>
      <path class="cls-1" d="M22.57,54.38h7.57l.45.45v13.02l-.45.45h-7.57l-.45-.45v-13.02l.45-.45ZM28.78,56.5h-4.54v9.99c1.24-.69,2.68-.15,3.92-.12.96.02.31-.82.3-1.53-.02-2.73-.19-5.72.32-8.35Z"/>
      <path class="cls-1" d="M22.11,76.03c.23-.72,1.03-.45,1.36-.45h6.66l.45.45v12.42c0,.05-.47.53-.61.6-.53.25-6.02.3-6.8.15-.33-.06-1.07-.52-1.07-.75v-12.42ZM28.78,77.7h-4.54v9.39h4.54c-.5-2.92-.5-6.46,0-9.39Z"/>
    </g>
  </g>
</svg>